<svg width="76" height="76" viewBox="0 0 76 76" fill="none" xmlns="http://www.w3.org/2000/svg">
<path d="M68.8531 45.685L68.6745 43.9098L68.6209 43.9134L68.5602 43.9241L68.8531 45.685ZM68.8531 45.685L69.0317 47.4637L69.0924 47.4566L69.1495 47.4458L68.8531 45.685ZM54.4231 65.2654L55.5554 63.8831L55.5375 63.8724L54.4231 65.2654ZM54.4231 65.2654L53.2909 66.6477L53.3088 66.662L54.4231 65.2654ZM21.5772 65.2654L20.4449 63.8867L20.4199 63.9081L20.3913 63.9331L21.5772 65.2654ZM21.5772 65.2654L22.7094 66.6512L22.738 66.6262L22.763 66.6048L21.5772 65.2654ZM7.14364 30.4264V28.6405H7.05792L6.96863 28.6476L7.14364 30.4264ZM7.14364 30.4264V32.2122H7.23294L7.32223 32.2015L7.14364 30.4264ZM47.401 7.02057C47.3481 6.37289 47.273 5.72722 47.176 5.08467C47.0958 4.51571 46.9245 3.96336 46.6688 3.4488L43.4935 5.08824C43.5293 5.15967 43.59 5.30254 43.6507 5.67401C43.7186 6.0669 43.7686 6.57767 43.8507 7.37417L47.401 7.02057ZM48.1011 11.3174C48.0583 11.2638 47.9297 11.0459 47.7904 10.2816C47.6234 9.19947 47.4983 8.11178 47.4082 7.02057L43.8507 7.37417C43.9936 8.80645 44.1114 9.99228 44.2757 10.9138C44.4365 11.8139 44.6865 12.7318 45.2616 13.4855L48.1011 11.3174ZM49.7584 12.0032C49.4462 12.0452 49.1285 12.0039 48.8374 11.8834C48.5464 11.763 48.2923 11.5677 48.1011 11.3174L45.258 13.4819C45.8316 14.2341 46.5941 14.8209 47.468 15.1829C48.3419 15.5449 49.296 15.6691 50.2335 15.5428L49.7584 12.0032ZM53.2873 9.45651C52.1265 10.4102 51.3336 11.0567 50.7085 11.4888C50.0692 11.9317 49.8227 11.9925 49.7584 12.0032L50.2335 15.5428C51.1693 15.4178 51.9943 14.9463 52.748 14.4213C53.5159 13.8855 54.4339 13.1354 55.5518 12.2211L53.2873 9.45651ZM56.3305 7.45275C55.759 7.63491 55.2768 7.92422 54.8196 8.24925C54.3767 8.56357 53.8731 8.97789 53.2873 9.45651L55.5518 12.2211C56.1697 11.7139 56.5698 11.3888 56.8912 11.1602C57.0519 11.0331 57.2299 10.9297 57.4199 10.8531L56.3305 7.45275ZM60.0915 7.63848C58.9016 7.12351 57.5653 7.05752 56.3305 7.45275L57.4199 10.8531C57.8307 10.723 58.2747 10.7458 58.67 10.9174L60.0915 7.63848ZM62.9204 9.9387C62.3846 9.40293 61.9239 8.9386 61.5167 8.58143C61.0951 8.19289 60.614 7.87453 60.0915 7.63848L58.67 10.9174C58.745 10.9495 58.8807 11.0245 59.1665 11.2745C59.4629 11.5317 59.8272 11.896 60.3951 12.4639L62.9204 9.9387ZM66.11 13.1283L62.9204 9.9387L60.3951 12.4639L63.5847 15.6535L66.11 13.1283ZM68.4102 15.9571C68.1731 15.4345 67.8535 14.9533 67.4637 14.532C67.1065 14.1248 66.6422 13.6641 66.11 13.1283L63.5847 15.6535C64.1526 16.2214 64.5134 16.5858 64.7777 16.8822C65.0277 17.168 65.0992 17.3037 65.1313 17.3787L68.4102 15.9571ZM68.5959 19.7182C68.9911 18.4833 68.9252 17.147 68.4102 15.9571L65.1313 17.3787C65.3017 17.7744 65.3232 18.2184 65.192 18.6288L68.5959 19.7182ZM66.5922 22.7613C67.0708 22.1756 67.4851 21.672 67.7994 21.2291C68.1209 20.7719 68.4138 20.2897 68.5959 19.7182L65.192 18.6288C65.1165 18.8186 65.0143 18.9966 64.8884 19.1574C64.5482 19.6144 64.1945 20.0611 63.8276 20.4968L66.5922 22.7613ZM64.0455 26.2903C64.0562 26.226 64.1169 25.9795 64.5598 25.3402C64.992 24.7151 65.6385 23.9222 66.5922 22.7613L63.8276 20.4968C62.9132 21.6148 62.1596 22.5328 61.6274 23.3007C61.1023 24.0508 60.6309 24.8794 60.5059 25.8152L64.0455 26.2903ZM64.7313 27.9476C64.481 27.7563 64.2857 27.5023 64.1652 27.2112C64.0448 26.9202 64.0035 26.6024 64.0455 26.2903L60.5059 25.8152C60.3803 26.7521 60.5047 27.7055 60.8667 28.5787C61.2287 29.4519 61.8152 30.2138 62.5668 30.7871L64.7313 27.9476ZM69.0281 28.6441C67.5315 28.494 66.5172 28.394 65.7671 28.2583C65.0027 28.119 64.7848 27.9904 64.7313 27.9476L62.5668 30.7871C63.3168 31.3586 64.2348 31.6086 65.1385 31.7729C66.0564 31.9372 67.2386 32.0587 68.6745 32.2015L69.0281 28.6441ZM72.5999 29.3798C72.0853 29.1241 71.533 28.9529 70.964 28.8726C70.4282 28.7833 69.7782 28.7191 69.0281 28.6441L68.6709 32.198C69.471 32.2801 69.9818 32.3301 70.3747 32.398C70.5764 32.4223 70.7736 32.4752 70.9604 32.5551L72.5999 29.3798ZM75.1251 32.1694C74.6483 30.9648 73.7512 29.9738 72.5999 29.3798L70.9604 32.5551C71.3444 32.7526 71.6439 33.0825 71.8034 33.4838L75.1251 32.1694ZM75.5002 35.7947C75.5002 35.0411 75.5002 34.3875 75.4644 33.8445C75.4417 33.2716 75.3271 32.706 75.1251 32.1694L71.8034 33.4838C71.8319 33.5588 71.8748 33.7088 71.8998 34.0839C71.9265 34.6549 71.936 35.2267 71.9284 35.7983L75.5002 35.7947ZM75.5002 40.3094V35.7947H71.9284V40.3094H75.5002ZM75.1251 43.9312C75.3466 43.374 75.4287 42.8168 75.4644 42.2561C75.5002 41.7167 75.5002 41.0631 75.5002 40.3094H71.9284C71.9284 41.1095 71.9284 41.6239 71.8998 42.0203C71.8963 42.2239 71.8639 42.426 71.8034 42.6204L75.1251 43.9312ZM72.5999 46.7243C73.7518 46.1295 74.649 45.1371 75.1251 43.9312L71.8034 42.6204C71.6439 43.0217 71.3444 43.3516 70.9604 43.549L72.5999 46.7243ZM69.0281 47.4601C69.7782 47.3851 70.4318 47.3173 70.964 47.228C71.5176 47.1387 72.0641 46.9994 72.5963 46.7279L70.9604 43.549C70.7736 43.6289 70.5764 43.6818 70.3747 43.7062C69.9818 43.7741 69.471 43.8241 68.6745 43.9062L69.0281 47.4601ZM64.7348 48.1566C64.7884 48.1138 65.0063 47.9816 65.7707 47.8459C66.5207 47.7102 67.5351 47.6066 69.0281 47.4601L68.6745 43.9062C67.2422 44.0491 66.0564 44.1634 65.1349 44.3313C64.2348 44.492 63.3204 44.742 62.5668 45.3135L64.7348 48.1566ZM64.0455 49.8139C64.0039 49.5014 64.0457 49.1835 64.1668 48.8924C64.2879 48.6013 64.4839 48.3474 64.7348 48.1566L62.5668 45.3135C61.8146 45.8871 61.2277 46.6496 60.8657 47.5235C60.5038 48.3974 60.3796 49.3515 60.5059 50.289L64.0455 49.8139ZM66.5922 53.3428C65.8845 52.5075 65.2067 51.6473 64.5598 50.764C64.1169 50.1282 64.0562 49.8782 64.0455 49.8139L60.5094 50.2925C60.6344 51.2283 61.1059 52.0498 61.6274 52.8035C62.1632 53.5678 62.9132 54.4894 63.8276 55.6038L66.5922 53.3428ZM68.5959 56.386C68.4133 55.8418 68.1443 55.3304 67.7994 54.8715C67.4125 54.3499 67.0099 53.8401 66.5922 53.3428L63.8276 55.6038C64.3348 56.2252 64.6598 56.6217 64.8884 56.9467C65.014 57.1065 65.1162 57.2833 65.192 57.4718L68.5959 56.386ZM68.4102 60.147C68.9252 58.9571 68.9911 57.6208 68.5959 56.386L65.192 57.4718C65.3241 57.8833 65.3026 58.3287 65.1313 58.7255L68.4102 60.147ZM66.1135 62.9723C66.6457 62.4401 67.1065 61.9794 67.4637 61.5722C67.8351 61.1471 68.1709 60.7007 68.4102 60.147L65.1313 58.7255C65.0363 58.9059 64.916 59.0719 64.7741 59.2184C64.39 59.6397 63.9934 60.0495 63.5847 60.4471L66.1135 62.9723ZM62.9204 66.1655L66.1135 62.9723L63.5847 60.4471L60.3951 63.6402L62.9204 66.1655ZM60.0915 68.4621C60.6416 68.2228 61.0916 67.8906 61.5167 67.5192C61.9239 67.162 62.3846 66.6977 62.9204 66.1619L60.3951 63.6402C59.8272 64.2082 59.4629 64.5689 59.1665 64.8296C59.0189 64.9718 58.8517 65.0921 58.67 65.1868L60.0915 68.4621ZM56.3305 68.6514C57.5658 69.0455 58.9021 68.9783 60.0915 68.4621L58.67 65.1868C58.2742 65.3572 57.8302 65.3788 57.4199 65.2475L56.3305 68.6514ZM53.2873 66.6441C53.8731 67.1227 54.3767 67.537 54.8196 67.8514C55.2768 68.1764 55.759 68.4693 56.3305 68.6514L57.4199 65.2475C57.2301 65.1721 57.0521 65.0698 56.8912 64.9439C56.4342 64.6026 55.9876 64.2476 55.5518 63.8795L53.2873 66.6441ZM49.7584 64.101C49.8227 64.1081 50.0727 64.1724 50.7085 64.6153C51.3336 65.0475 52.1265 65.694 53.2873 66.6441L55.5518 63.8795C54.4339 62.9687 53.5159 62.2151 52.748 61.6793C51.9979 61.1579 51.1693 60.6864 50.2335 60.5614L49.7584 64.101ZM48.1011 64.7868C48.2923 64.5365 48.5464 64.3412 48.8374 64.2207C49.1285 64.1003 49.4462 64.059 49.7584 64.101L50.2335 60.5614C49.2969 60.4354 48.3437 60.5593 47.4705 60.9206C46.5973 61.2819 45.8352 61.8678 45.2616 62.6187L48.1011 64.7868ZM47.4046 69.0836C47.5546 67.587 47.6546 66.5727 47.7904 65.8226C47.9297 65.0582 48.0583 64.8404 48.1011 64.7868L45.2616 62.6187C44.6901 63.3688 44.44 64.2903 44.2757 65.1904C44.1114 66.1083 43.99 67.2906 43.8471 68.7264L47.4046 69.0836ZM46.6688 72.6554C46.9439 72.1196 47.0796 71.5731 47.1725 71.0195C47.2653 70.4837 47.3296 69.8337 47.4046 69.0836L43.8471 68.7264C43.7975 69.2962 43.7344 69.8644 43.6507 70.4302C43.6263 70.6319 43.5734 70.8291 43.4935 71.0159L46.6688 72.6554ZM43.8793 75.1806C45.0839 74.7038 46.0749 73.8067 46.6688 72.6554L43.4935 71.0159C43.2961 71.4 42.9662 71.6994 42.5649 71.8589L43.8793 75.1806ZM40.2539 75.5557C41.0076 75.5557 41.6612 75.5557 42.2041 75.5199C42.7613 75.4842 43.3221 75.4021 43.8793 75.1806L42.5649 71.8589C42.3704 71.9194 42.1684 71.9518 41.9648 71.9553C41.5719 71.9839 41.054 71.9839 40.2504 71.9839L40.2539 75.5557ZM35.7392 75.5557H40.2539L40.2504 71.9839H35.7392V75.5557ZM32.1139 75.1806C32.6746 75.4021 33.2318 75.4842 33.7926 75.5199C34.3319 75.5557 34.9856 75.5557 35.7392 75.5557V71.9839C34.9391 71.9839 34.4248 71.9839 34.0283 71.9553C33.8248 71.9518 33.6227 71.9194 33.4283 71.8589L32.1139 75.1806ZM29.3243 72.6554C29.9183 73.8067 30.9093 74.7038 32.1139 75.1806L33.4283 71.8589C33.027 71.6994 32.6971 71.4 32.4996 71.0159L29.3243 72.6554ZM28.5885 69.0836C28.66 69.8385 28.7362 70.4837 28.8171 71.0195C28.91 71.5731 29.0493 72.1196 29.3243 72.6554L32.4996 71.0159C32.4197 70.8291 32.3668 70.6319 32.3425 70.4302C32.2588 69.8656 32.1921 69.2986 32.1425 68.73L28.5885 69.0836ZM27.892 64.7868C27.9349 64.8404 28.0635 65.0582 28.2028 65.8226C28.3385 66.5727 28.4385 67.5906 28.5885 69.0836L32.1425 68.73C31.9996 67.2977 31.8817 66.1119 31.7174 65.1904C31.5567 64.2903 31.3067 63.3724 30.7316 62.6187L27.892 64.7868ZM26.2347 64.101C26.5469 64.059 26.8647 64.1003 27.1557 64.2207C27.4468 64.3412 27.7008 64.5365 27.892 64.7868L30.7316 62.6187C30.1583 61.8671 29.3964 61.2842 28.5232 60.9222C27.65 60.5603 26.6966 60.4358 25.7597 60.5614L26.2347 64.101ZM22.7058 66.6477C23.8667 65.694 24.6596 65.0475 25.2847 64.6153C25.924 64.1724 26.1705 64.1081 26.2347 64.101L25.7597 60.5614C24.8239 60.6864 23.9988 61.1579 23.2452 61.6829C22.4772 62.2151 21.5593 62.9688 20.4413 63.8831L22.7058 66.6477ZM19.6627 68.6514C20.2342 68.4693 20.7164 68.18 21.1735 67.8549C21.6164 67.5406 22.1201 67.1263 22.7058 66.6477L20.4413 63.8831C20.0055 64.25 19.5589 64.6038 19.1019 64.9439C18.9411 65.0698 18.7631 65.1721 18.5733 65.2475L19.6627 68.6514ZM15.9016 68.4693C17.0915 68.9842 18.4278 69.0467 19.6627 68.6514L18.5733 65.2475C18.1629 65.3788 17.7189 65.3572 17.3232 65.1868L15.9016 68.4693ZM13.0728 66.1655C13.6085 66.7012 14.0693 67.1656 14.4765 67.5228C14.898 67.8906 15.3516 68.23 15.9016 68.4693L17.3232 65.1868C17.1415 65.0921 16.9743 64.9718 16.8267 64.8296C16.4054 64.4455 15.9956 64.0489 15.598 63.6402L13.0728 66.1655ZM9.88319 62.9759L13.0728 66.1655L15.598 63.6402L12.4084 60.4507L9.88319 62.9759ZM7.58297 60.147C7.82228 60.6971 8.15803 61.1471 8.52949 61.5722C8.88667 61.9794 9.351 62.4401 9.88319 62.9759L12.4084 60.4507C11.9986 60.0531 11.6008 59.6434 11.2155 59.222C11.0733 59.0744 10.953 58.9072 10.8583 58.7255L7.58297 60.147ZM7.39724 56.386C7.00201 57.6208 7.068 58.9571 7.58297 60.147L10.8583 58.7255C10.6867 58.3302 10.6675 57.8862 10.7976 57.4754L7.39724 56.386ZM9.401 53.3428C8.92238 53.9286 8.50806 54.4322 8.19374 54.8751C7.84916 55.3329 7.58024 55.843 7.39724 56.386L10.7976 57.4754C10.8742 57.2854 10.9776 57.1074 11.1047 56.9467C11.3333 56.6253 11.6584 56.2252 12.1656 55.6073L9.401 53.3428ZM11.9477 49.8139C11.937 49.8782 11.8762 50.1247 11.4333 50.764C10.9976 51.3891 10.3547 52.182 9.401 53.3428L12.1656 55.6073C13.0799 54.4894 13.8336 53.5714 14.3658 52.8035C14.8908 52.0534 15.3623 51.2248 15.4873 50.289L11.9477 49.8139ZM11.2619 48.1566C11.5122 48.3478 11.7075 48.6019 11.8279 48.8929C11.9484 49.184 11.9897 49.5017 11.9477 49.8139L15.4873 50.289C15.6129 49.3521 15.4884 48.3987 15.1265 47.5255C14.7645 46.6522 14.178 45.8903 13.4264 45.3171L11.2619 48.1566ZM6.96505 47.4637C8.46163 47.6101 9.47601 47.7102 10.2261 47.8459C10.9904 47.9852 11.2083 48.1138 11.2619 48.1566L13.4264 45.3135C12.6763 44.742 11.7584 44.492 10.8547 44.3313C9.93677 44.167 8.75451 44.0455 7.31866 43.9026L6.96505 47.4637ZM3.39329 46.7243C3.92905 46.9994 4.47553 47.1351 5.02916 47.228C5.56492 47.3208 6.21141 47.3887 6.96505 47.4637L7.32223 43.9062C6.75245 43.8566 6.18428 43.7899 5.6185 43.7062C5.41678 43.6818 5.21955 43.6289 5.03273 43.549L3.39329 46.7243ZM0.868046 43.9312C1.34412 45.1371 2.24132 46.1295 3.39329 46.7243L5.03273 43.549C4.64872 43.3516 4.34926 43.0217 4.18979 42.6204L0.868046 43.9312ZM0.496582 40.3166C0.496582 41.0702 0.496582 41.7239 0.5323 42.2668C0.555416 42.8385 0.669973 43.4029 0.871618 43.9384L4.19336 42.6275C4.13287 42.4331 4.1004 42.2311 4.09692 42.0275C4.07025 41.4564 4.06072 40.8847 4.06835 40.313L0.496582 40.3166ZM0.496582 35.8019V40.3166H4.06835V35.8019H0.496582ZM0.871618 32.1765C0.669225 32.7143 0.554655 33.2811 0.5323 33.8553C0.496582 34.3946 0.496582 35.0482 0.496582 35.8019H4.06835C4.06835 35.0018 4.06835 34.4875 4.09692 34.091C4.1004 33.8874 4.13287 33.6854 4.19336 33.4909L0.871618 32.1765ZM3.39686 29.387C2.24553 29.9809 1.34842 30.972 0.871618 32.1765L4.19336 33.4909C4.35283 33.0897 4.65229 32.7597 5.0363 32.5623L3.39686 29.387ZM6.96863 28.6476C6.21379 28.7191 5.56849 28.7988 5.03273 28.8798C4.46377 28.96 3.91142 29.1313 3.39686 29.387L5.0363 32.5623C5.10773 32.5266 5.25061 32.4658 5.62207 32.4051C6.01496 32.3373 6.52573 32.2873 7.32223 32.2051L6.96863 28.6476ZM11.2655 27.9547C11.2119 27.9976 10.994 28.1261 10.2297 28.2654C9.47958 28.4012 8.4652 28.4976 6.96863 28.6476L7.32223 32.2051C8.75451 32.0622 9.94391 31.9444 10.8619 31.7801C11.7655 31.6193 12.6835 31.3693 13.4335 30.7943L11.2655 27.9547ZM11.9512 26.2974C11.9932 26.6096 11.9519 26.9273 11.8315 27.2184C11.7111 27.5094 11.5158 27.7635 11.2655 27.9547L13.4335 30.7943C14.1845 30.2206 14.7703 29.4585 15.1316 28.5853C15.4929 27.7121 15.6169 26.7553 15.4909 25.8188L11.9512 26.2974ZM9.40457 22.7649C10.3582 23.9293 11.0047 24.7223 11.4405 25.3473C11.8834 25.9867 11.9405 26.2331 11.9512 26.2974L15.4909 25.8188C15.3659 24.883 14.8944 24.0615 14.3693 23.3078C13.8371 22.5399 13.0835 21.622 12.1691 20.504L9.40457 22.7649ZM7.40081 19.7218C7.5794 20.2933 7.87228 20.779 8.19731 21.2362C8.51163 21.6755 8.92596 22.1827 9.40457 22.7649L12.1691 20.504C11.8022 20.067 11.4484 19.6192 11.1083 19.161C10.9815 19.0015 10.878 18.8247 10.8011 18.636L7.40081 19.7218ZM7.58654 15.9643C7.07246 17.1531 7.00648 18.488 7.40081 19.7218L10.8011 18.636C10.671 18.2251 10.6939 17.7811 10.8654 17.3858L7.58654 15.9643ZM9.88676 13.1354C9.351 13.6676 8.88667 14.1284 8.52949 14.5391C8.14095 14.9607 7.82259 15.4418 7.58654 15.9643L10.8654 17.3858C10.9604 17.2054 11.0807 17.0358 11.2226 16.8894C11.6049 16.4664 12.0016 16.0566 12.412 15.6607L9.88676 13.1354ZM13.0764 9.94227L9.88676 13.1354L12.412 15.6607L15.6016 12.4675L13.0764 9.94227ZM15.9052 7.64562C15.3828 7.88167 14.9016 8.20003 14.4801 8.58857C14.0729 8.94575 13.6085 9.40651 13.0764 9.94227L15.6016 12.4675C16.1695 11.9032 16.5338 11.5389 16.8303 11.2781C17.116 11.0281 17.2517 10.9567 17.3268 10.9209L15.9052 7.64562ZM19.6663 7.45632C18.431 7.06222 17.0947 7.12948 15.9052 7.64562L17.3268 10.9209C17.7221 10.7494 18.1661 10.7301 18.5769 10.8602L19.6663 7.45632ZM22.7094 9.46365C22.1236 8.98504 21.62 8.57071 21.1771 8.2564C20.7196 7.91055 20.2095 7.64042 19.6663 7.45632L18.5769 10.8602C18.7666 10.9357 18.9447 11.0379 19.1055 11.1638C19.427 11.396 19.827 11.721 20.4485 12.2282L22.7094 9.46365ZM26.2383 12.0103C26.174 11.9996 25.9276 11.9389 25.2882 11.496C24.4049 10.848 23.5447 10.1725 22.7094 9.46365L20.4485 12.2282C21.5629 13.1426 22.4844 13.8962 23.2487 14.4284C23.9988 14.9499 24.8275 15.4214 25.7633 15.5499L26.2383 12.0103ZM27.8956 11.321C27.7048 11.5719 27.451 11.7679 27.1599 11.889C26.8688 12.0101 26.5508 12.0519 26.2383 12.0103L25.7633 15.5499C26.7004 15.6766 27.6543 15.5494 28.5282 15.1881C29.4021 14.8267 30.1648 14.2405 30.7387 13.489L27.8956 11.321ZM28.5921 7.02771C28.4421 8.52071 28.3421 9.53866 28.2064 10.2852C28.0671 11.0495 27.9385 11.2674 27.8956 11.321L30.7387 13.489C31.3102 12.739 31.5603 11.821 31.721 10.9174C31.8853 9.99942 32.0067 8.81716 32.1496 7.38131L28.5921 7.02771ZM29.3279 3.45594C29.0529 3.99171 28.9136 4.53819 28.8207 5.09181C28.7314 5.62757 28.6671 6.27407 28.5921 7.02771L32.146 7.38489C32.1956 6.8151 32.2623 6.24693 32.346 5.68115C32.3704 5.47943 32.4233 5.2822 32.5032 5.09538L29.3279 3.45594ZM32.121 0.930699C30.9145 1.40765 29.9221 2.30263 29.3279 3.45594L32.5032 5.09538C32.7007 4.71137 33.0306 4.41191 33.4319 4.25244L32.121 0.930699ZM35.7428 0.555664C34.9892 0.555664 34.3355 0.555664 33.7926 0.591382C33.2209 0.614498 32.6565 0.729055 32.121 0.930699L33.4319 4.25244C33.6263 4.19196 33.8283 4.15948 34.0319 4.15601C34.4248 4.12743 34.9427 4.12743 35.7464 4.12743L35.7428 0.555664ZM40.2575 0.555664H35.7428V4.12743H40.2575V0.555664ZM43.8829 0.930699C43.3451 0.728307 42.7783 0.613737 42.2041 0.591382C41.6648 0.555664 41.0112 0.555664 40.2575 0.555664V4.12743C41.0576 4.12743 41.5719 4.12743 41.9684 4.15601C42.172 4.15948 42.374 4.19196 42.5684 4.25244L43.8829 0.930699ZM46.6724 3.45594C46.0776 2.30397 45.0852 1.40677 43.8793 0.930699L42.5684 4.25244C42.9697 4.41191 43.2996 4.71137 43.4971 5.09538L46.6724 3.45594ZM50.5013 38.0557C50.5013 41.3712 49.1843 44.5509 46.8398 46.8953C44.4954 49.2398 41.3157 50.5569 38.0002 50.5569V54.1286C42.263 54.1286 46.3512 52.4352 49.3654 49.421C52.3797 46.4067 54.0731 42.3185 54.0731 38.0557H50.5013ZM38.0002 25.5545C41.3157 25.5545 44.4954 26.8716 46.8398 29.216C49.1843 31.5604 50.5013 34.7401 50.5013 38.0557H54.0731C54.0731 33.7928 52.3797 29.7046 49.3654 26.6904C46.3512 23.6761 42.263 21.9827 38.0002 21.9827V25.5545ZM25.499 38.0557C25.499 34.7401 26.816 31.5604 29.1605 29.216C31.5049 26.8716 34.6846 25.5545 38.0002 25.5545V21.9827C33.7373 21.9827 29.6491 23.6761 26.6349 26.6904C23.6206 29.7046 21.9272 33.7928 21.9272 38.0557H25.499ZM38.0002 50.5569C34.6846 50.5569 31.5049 49.2398 29.1605 46.8953C26.816 44.5509 25.499 41.3712 25.499 38.0557H21.9272C21.9272 42.3185 23.6206 46.4067 26.6349 49.421C29.6491 52.4352 33.7373 54.1286 38.0002 54.1286V50.5569Z" fill="#2C3244"/>
<path d="M68.8531 45.685L68.6745 43.9098L68.6209 43.9134L68.5602 43.9241L68.8531 45.685ZM68.8531 45.685L69.0317 47.4637L69.0924 47.4566L69.1495 47.4458L68.8531 45.685ZM54.4231 65.2654L55.5554 63.8831L55.5375 63.8724L54.4231 65.2654ZM54.4231 65.2654L53.2909 66.6477L53.3088 66.662L54.4231 65.2654ZM21.5772 65.2654L20.4449 63.8867L20.4199 63.9081L20.3913 63.9331L21.5772 65.2654ZM21.5772 65.2654L22.7094 66.6512L22.738 66.6262L22.763 66.6048L21.5772 65.2654ZM7.14364 30.4264V28.6405H7.05792L6.96863 28.6476L7.14364 30.4264ZM7.14364 30.4264V32.2122H7.23294L7.32223 32.2015L7.14364 30.4264ZM47.401 7.02057C47.3481 6.37289 47.273 5.72722 47.176 5.08467C47.0958 4.51571 46.9245 3.96336 46.6688 3.4488L43.4935 5.08824C43.5293 5.15967 43.59 5.30254 43.6507 5.67401C43.7186 6.0669 43.7686 6.57767 43.8507 7.37417L47.401 7.02057ZM48.1011 11.3174C48.0583 11.2638 47.9297 11.0459 47.7904 10.2816C47.6234 9.19947 47.4983 8.11178 47.4082 7.02057L43.8507 7.37417C43.9936 8.80645 44.1114 9.99228 44.2757 10.9138C44.4365 11.8139 44.6865 12.7318 45.2616 13.4855L48.1011 11.3174ZM49.7584 12.0032C49.4462 12.0452 49.1285 12.0039 48.8374 11.8834C48.5464 11.763 48.2923 11.5677 48.1011 11.3174L45.258 13.4819C45.8316 14.2341 46.5941 14.8209 47.468 15.1829C48.3419 15.5449 49.296 15.6691 50.2335 15.5428L49.7584 12.0032ZM53.2873 9.45651C52.1265 10.4102 51.3336 11.0567 50.7085 11.4888C50.0692 11.9317 49.8227 11.9925 49.7584 12.0032L50.2335 15.5428C51.1693 15.4178 51.9943 14.9463 52.748 14.4213C53.5159 13.8855 54.4339 13.1354 55.5518 12.2211L53.2873 9.45651ZM56.3305 7.45275C55.759 7.63491 55.2768 7.92422 54.8196 8.24925C54.3767 8.56357 53.8731 8.97789 53.2873 9.45651L55.5518 12.2211C56.1697 11.7139 56.5698 11.3888 56.8912 11.1602C57.0519 11.0331 57.2299 10.9297 57.4199 10.8531L56.3305 7.45275ZM60.0915 7.63848C58.9016 7.12351 57.5653 7.05752 56.3305 7.45275L57.4199 10.8531C57.8307 10.723 58.2747 10.7458 58.67 10.9174L60.0915 7.63848ZM62.9204 9.9387C62.3846 9.40293 61.9239 8.9386 61.5167 8.58143C61.0951 8.19289 60.614 7.87453 60.0915 7.63848L58.67 10.9174C58.745 10.9495 58.8807 11.0245 59.1665 11.2745C59.4629 11.5317 59.8272 11.896 60.3951 12.4639L62.9204 9.9387ZM66.11 13.1283L62.9204 9.9387L60.3951 12.4639L63.5847 15.6535L66.11 13.1283ZM68.4102 15.9571C68.1731 15.4345 67.8535 14.9533 67.4637 14.532C67.1065 14.1248 66.6422 13.6641 66.11 13.1283L63.5847 15.6535C64.1526 16.2214 64.5134 16.5858 64.7777 16.8822C65.0277 17.168 65.0992 17.3037 65.1313 17.3787L68.4102 15.9571ZM68.5959 19.7182C68.9911 18.4833 68.9252 17.147 68.4102 15.9571L65.1313 17.3787C65.3017 17.7744 65.3232 18.2184 65.192 18.6288L68.5959 19.7182ZM66.5922 22.7613C67.0708 22.1756 67.4851 21.672 67.7994 21.2291C68.1209 20.7719 68.4138 20.2897 68.5959 19.7182L65.192 18.6288C65.1165 18.8186 65.0143 18.9966 64.8884 19.1574C64.5482 19.6144 64.1945 20.0611 63.8276 20.4968L66.5922 22.7613ZM64.0455 26.2903C64.0562 26.226 64.1169 25.9795 64.5598 25.3402C64.992 24.7151 65.6385 23.9222 66.5922 22.7613L63.8276 20.4968C62.9132 21.6148 62.1596 22.5328 61.6274 23.3007C61.1023 24.0508 60.6309 24.8794 60.5059 25.8152L64.0455 26.2903ZM64.7313 27.9476C64.481 27.7563 64.2857 27.5023 64.1652 27.2112C64.0448 26.9202 64.0035 26.6024 64.0455 26.2903L60.5059 25.8152C60.3803 26.7521 60.5047 27.7055 60.8667 28.5787C61.2287 29.4519 61.8152 30.2138 62.5668 30.7871L64.7313 27.9476ZM69.0281 28.6441C67.5315 28.494 66.5172 28.394 65.7671 28.2583C65.0027 28.119 64.7848 27.9904 64.7313 27.9476L62.5668 30.7871C63.3168 31.3586 64.2348 31.6086 65.1385 31.7729C66.0564 31.9372 67.2386 32.0587 68.6745 32.2015L69.0281 28.6441ZM72.5999 29.3798C72.0853 29.1241 71.533 28.9529 70.964 28.8726C70.4282 28.7833 69.7782 28.7191 69.0281 28.6441L68.6709 32.198C69.471 32.2801 69.9818 32.3301 70.3747 32.398C70.5764 32.4223 70.7736 32.4752 70.9604 32.5551L72.5999 29.3798ZM75.1251 32.1694C74.6483 30.9648 73.7512 29.9738 72.5999 29.3798L70.9604 32.5551C71.3444 32.7526 71.6439 33.0825 71.8034 33.4838L75.1251 32.1694ZM75.5002 35.7947C75.5002 35.0411 75.5002 34.3875 75.4644 33.8445C75.4417 33.2716 75.3271 32.706 75.1251 32.1694L71.8034 33.4838C71.8319 33.5588 71.8748 33.7088 71.8998 34.0839C71.9265 34.6549 71.936 35.2267 71.9284 35.7983L75.5002 35.7947ZM75.5002 40.3094V35.7947H71.9284V40.3094H75.5002ZM75.1251 43.9312C75.3466 43.374 75.4287 42.8168 75.4644 42.2561C75.5002 41.7167 75.5002 41.0631 75.5002 40.3094H71.9284C71.9284 41.1095 71.9284 41.6239 71.8998 42.0203C71.8963 42.2239 71.8639 42.426 71.8034 42.6204L75.1251 43.9312ZM72.5999 46.7243C73.7518 46.1295 74.649 45.1371 75.1251 43.9312L71.8034 42.6204C71.6439 43.0217 71.3444 43.3516 70.9604 43.549L72.5999 46.7243ZM69.0281 47.4601C69.7782 47.3851 70.4318 47.3173 70.964 47.228C71.5176 47.1387 72.0641 46.9994 72.5963 46.7279L70.9604 43.549C70.7736 43.6289 70.5764 43.6818 70.3747 43.7062C69.9818 43.7741 69.471 43.8241 68.6745 43.9062L69.0281 47.4601ZM64.7348 48.1566C64.7884 48.1138 65.0063 47.9816 65.7707 47.8459C66.5207 47.7102 67.5351 47.6066 69.0281 47.4601L68.6745 43.9062C67.2422 44.0491 66.0564 44.1634 65.1349 44.3313C64.2348 44.492 63.3204 44.742 62.5668 45.3135L64.7348 48.1566ZM64.0455 49.8139C64.0039 49.5014 64.0457 49.1835 64.1668 48.8924C64.2879 48.6013 64.4839 48.3474 64.7348 48.1566L62.5668 45.3135C61.8146 45.8871 61.2277 46.6496 60.8657 47.5235C60.5038 48.3974 60.3796 49.3515 60.5059 50.289L64.0455 49.8139ZM66.5922 53.3428C65.8845 52.5075 65.2067 51.6473 64.5598 50.764C64.1169 50.1282 64.0562 49.8782 64.0455 49.8139L60.5094 50.2925C60.6344 51.2283 61.1059 52.0498 61.6274 52.8035C62.1632 53.5678 62.9132 54.4894 63.8276 55.6038L66.5922 53.3428ZM68.5959 56.386C68.4133 55.8418 68.1443 55.3304 67.7994 54.8715C67.4125 54.3499 67.0099 53.8401 66.5922 53.3428L63.8276 55.6038C64.3348 56.2252 64.6598 56.6217 64.8884 56.9467C65.014 57.1065 65.1162 57.2833 65.192 57.4718L68.5959 56.386ZM68.4102 60.147C68.9252 58.9571 68.9911 57.6208 68.5959 56.386L65.192 57.4718C65.3241 57.8833 65.3026 58.3287 65.1313 58.7255L68.4102 60.147ZM66.1135 62.9723C66.6457 62.4401 67.1065 61.9794 67.4637 61.5722C67.8351 61.1471 68.1709 60.7007 68.4102 60.147L65.1313 58.7255C65.0363 58.9059 64.916 59.0719 64.7741 59.2184C64.39 59.6397 63.9934 60.0495 63.5847 60.4471L66.1135 62.9723ZM62.9204 66.1655L66.1135 62.9723L63.5847 60.4471L60.3951 63.6402L62.9204 66.1655ZM60.0915 68.4621C60.6416 68.2228 61.0916 67.8906 61.5167 67.5192C61.9239 67.162 62.3846 66.6977 62.9204 66.1619L60.3951 63.6402C59.8272 64.2082 59.4629 64.5689 59.1665 64.8296C59.0189 64.9718 58.8517 65.0921 58.67 65.1868L60.0915 68.4621ZM56.3305 68.6514C57.5658 69.0455 58.9021 68.9783 60.0915 68.4621L58.67 65.1868C58.2742 65.3572 57.8302 65.3788 57.4199 65.2475L56.3305 68.6514ZM53.2873 66.6441C53.8731 67.1227 54.3767 67.537 54.8196 67.8514C55.2768 68.1764 55.759 68.4693 56.3305 68.6514L57.4199 65.2475C57.2301 65.1721 57.0521 65.0698 56.8912 64.9439C56.4342 64.6026 55.9876 64.2476 55.5518 63.8795L53.2873 66.6441ZM49.7584 64.101C49.8227 64.1081 50.0727 64.1724 50.7085 64.6153C51.3336 65.0475 52.1265 65.694 53.2873 66.6441L55.5518 63.8795C54.4339 62.9687 53.5159 62.2151 52.748 61.6793C51.9979 61.1579 51.1693 60.6864 50.2335 60.5614L49.7584 64.101ZM48.1011 64.7868C48.2923 64.5365 48.5464 64.3412 48.8374 64.2207C49.1285 64.1003 49.4462 64.059 49.7584 64.101L50.2335 60.5614C49.2969 60.4354 48.3437 60.5593 47.4705 60.9206C46.5973 61.2819 45.8352 61.8678 45.2616 62.6187L48.1011 64.7868ZM47.4046 69.0836C47.5546 67.587 47.6546 66.5727 47.7904 65.8226C47.9297 65.0582 48.0583 64.8404 48.1011 64.7868L45.2616 62.6187C44.6901 63.3688 44.44 64.2903 44.2757 65.1904C44.1114 66.1083 43.99 67.2906 43.8471 68.7264L47.4046 69.0836ZM46.6688 72.6554C46.9439 72.1196 47.0796 71.5731 47.1725 71.0195C47.2653 70.4837 47.3296 69.8337 47.4046 69.0836L43.8471 68.7264C43.7975 69.2962 43.7344 69.8644 43.6507 70.4302C43.6263 70.6319 43.5734 70.8291 43.4935 71.0159L46.6688 72.6554ZM43.8793 75.1806C45.0839 74.7038 46.0749 73.8067 46.6688 72.6554L43.4935 71.0159C43.2961 71.4 42.9662 71.6994 42.5649 71.8589L43.8793 75.1806ZM40.2539 75.5557C41.0076 75.5557 41.6612 75.5557 42.2041 75.5199C42.7613 75.4842 43.3221 75.4021 43.8793 75.1806L42.5649 71.8589C42.3704 71.9194 42.1684 71.9518 41.9648 71.9553C41.5719 71.9839 41.054 71.9839 40.2504 71.9839L40.2539 75.5557ZM35.7392 75.5557H40.2539L40.2504 71.9839H35.7392V75.5557ZM32.1139 75.1806C32.6746 75.4021 33.2318 75.4842 33.7926 75.5199C34.3319 75.5557 34.9856 75.5557 35.7392 75.5557V71.9839C34.9391 71.9839 34.4248 71.9839 34.0283 71.9553C33.8248 71.9518 33.6227 71.9194 33.4283 71.8589L32.1139 75.1806ZM29.3243 72.6554C29.9183 73.8067 30.9093 74.7038 32.1139 75.1806L33.4283 71.8589C33.027 71.6994 32.6971 71.4 32.4996 71.0159L29.3243 72.6554ZM28.5885 69.0836C28.66 69.8385 28.7362 70.4837 28.8171 71.0195C28.91 71.5731 29.0493 72.1196 29.3243 72.6554L32.4996 71.0159C32.4197 70.8291 32.3668 70.6319 32.3425 70.4302C32.2588 69.8656 32.1921 69.2986 32.1425 68.73L28.5885 69.0836ZM27.892 64.7868C27.9349 64.8404 28.0635 65.0582 28.2028 65.8226C28.3385 66.5727 28.4385 67.5906 28.5885 69.0836L32.1425 68.73C31.9996 67.2977 31.8817 66.1119 31.7174 65.1904C31.5567 64.2903 31.3067 63.3724 30.7316 62.6187L27.892 64.7868ZM26.2347 64.101C26.5469 64.059 26.8647 64.1003 27.1557 64.2207C27.4468 64.3412 27.7008 64.5365 27.892 64.7868L30.7316 62.6187C30.1583 61.8671 29.3964 61.2842 28.5232 60.9222C27.65 60.5603 26.6966 60.4358 25.7597 60.5614L26.2347 64.101ZM22.7058 66.6477C23.8667 65.694 24.6596 65.0475 25.2847 64.6153C25.924 64.1724 26.1705 64.1081 26.2347 64.101L25.7597 60.5614C24.8239 60.6864 23.9988 61.1579 23.2452 61.6829C22.4772 62.2151 21.5593 62.9688 20.4413 63.8831L22.7058 66.6477ZM19.6627 68.6514C20.2342 68.4693 20.7164 68.18 21.1735 67.8549C21.6164 67.5406 22.1201 67.1263 22.7058 66.6477L20.4413 63.8831C20.0055 64.25 19.5589 64.6038 19.1019 64.9439C18.9411 65.0698 18.7631 65.1721 18.5733 65.2475L19.6627 68.6514ZM15.9016 68.4693C17.0915 68.9842 18.4278 69.0467 19.6627 68.6514L18.5733 65.2475C18.1629 65.3788 17.7189 65.3572 17.3232 65.1868L15.9016 68.4693ZM13.0728 66.1655C13.6085 66.7012 14.0693 67.1656 14.4765 67.5228C14.898 67.8906 15.3516 68.23 15.9016 68.4693L17.3232 65.1868C17.1415 65.0921 16.9743 64.9718 16.8267 64.8296C16.4054 64.4455 15.9956 64.0489 15.598 63.6402L13.0728 66.1655ZM9.88319 62.9759L13.0728 66.1655L15.598 63.6402L12.4084 60.4507L9.88319 62.9759ZM7.58297 60.147C7.82228 60.6971 8.15803 61.1471 8.52949 61.5722C8.88667 61.9794 9.351 62.4401 9.88319 62.9759L12.4084 60.4507C11.9986 60.0531 11.6008 59.6434 11.2155 59.222C11.0733 59.0744 10.953 58.9072 10.8583 58.7255L7.58297 60.147ZM7.39724 56.386C7.00201 57.6208 7.068 58.9571 7.58297 60.147L10.8583 58.7255C10.6867 58.3302 10.6675 57.8862 10.7976 57.4754L7.39724 56.386ZM9.401 53.3428C8.92238 53.9286 8.50806 54.4322 8.19374 54.8751C7.84916 55.3329 7.58024 55.843 7.39724 56.386L10.7976 57.4754C10.8742 57.2854 10.9776 57.1074 11.1047 56.9467C11.3333 56.6253 11.6584 56.2252 12.1656 55.6073L9.401 53.3428ZM11.9477 49.8139C11.937 49.8782 11.8762 50.1247 11.4333 50.764C10.9976 51.3891 10.3547 52.182 9.401 53.3428L12.1656 55.6073C13.0799 54.4894 13.8336 53.5714 14.3658 52.8035C14.8908 52.0534 15.3623 51.2248 15.4873 50.289L11.9477 49.8139ZM11.2619 48.1566C11.5122 48.3478 11.7075 48.6019 11.8279 48.8929C11.9484 49.184 11.9897 49.5017 11.9477 49.8139L15.4873 50.289C15.6129 49.3521 15.4884 48.3987 15.1265 47.5255C14.7645 46.6522 14.178 45.8903 13.4264 45.3171L11.2619 48.1566ZM6.96505 47.4637C8.46163 47.6101 9.47601 47.7102 10.2261 47.8459C10.9904 47.9852 11.2083 48.1138 11.2619 48.1566L13.4264 45.3135C12.6763 44.742 11.7584 44.492 10.8547 44.3313C9.93677 44.167 8.75451 44.0455 7.31866 43.9026L6.96505 47.4637ZM3.39329 46.7243C3.92905 46.9994 4.47553 47.1351 5.02916 47.228C5.56492 47.3208 6.21141 47.3887 6.96505 47.4637L7.32223 43.9062C6.75245 43.8566 6.18428 43.7899 5.6185 43.7062C5.41678 43.6818 5.21955 43.6289 5.03273 43.549L3.39329 46.7243ZM0.868046 43.9312C1.34412 45.1371 2.24132 46.1295 3.39329 46.7243L5.03273 43.549C4.64872 43.3516 4.34926 43.0217 4.18979 42.6204L0.868046 43.9312ZM0.496582 40.3166C0.496582 41.0702 0.496582 41.7239 0.5323 42.2668C0.555416 42.8385 0.669973 43.4029 0.871618 43.9384L4.19336 42.6275C4.13287 42.4331 4.1004 42.2311 4.09692 42.0275C4.07025 41.4564 4.06072 40.8847 4.06835 40.313L0.496582 40.3166ZM0.496582 35.8019V40.3166H4.06835V35.8019H0.496582ZM0.871618 32.1765C0.669225 32.7143 0.554655 33.2811 0.5323 33.8553C0.496582 34.3946 0.496582 35.0482 0.496582 35.8019H4.06835C4.06835 35.0018 4.06835 34.4875 4.09692 34.091C4.1004 33.8874 4.13287 33.6854 4.19336 33.4909L0.871618 32.1765ZM3.39686 29.387C2.24553 29.9809 1.34842 30.972 0.871618 32.1765L4.19336 33.4909C4.35283 33.0897 4.65229 32.7597 5.0363 32.5623L3.39686 29.387ZM6.96863 28.6476C6.21379 28.7191 5.56849 28.7988 5.03273 28.8798C4.46377 28.96 3.91142 29.1313 3.39686 29.387L5.0363 32.5623C5.10773 32.5266 5.25061 32.4658 5.62207 32.4051C6.01496 32.3373 6.52573 32.2873 7.32223 32.2051L6.96863 28.6476ZM11.2655 27.9547C11.2119 27.9976 10.994 28.1261 10.2297 28.2654C9.47958 28.4012 8.4652 28.4976 6.96863 28.6476L7.32223 32.2051C8.75451 32.0622 9.94391 31.9444 10.8619 31.7801C11.7655 31.6193 12.6835 31.3693 13.4335 30.7943L11.2655 27.9547ZM11.9512 26.2974C11.9932 26.6096 11.9519 26.9273 11.8315 27.2184C11.7111 27.5094 11.5158 27.7635 11.2655 27.9547L13.4335 30.7943C14.1845 30.2206 14.7703 29.4585 15.1316 28.5853C15.4929 27.7121 15.6169 26.7553 15.4909 25.8188L11.9512 26.2974ZM9.40457 22.7649C10.3582 23.9293 11.0047 24.7223 11.4405 25.3473C11.8834 25.9867 11.9405 26.2331 11.9512 26.2974L15.4909 25.8188C15.3659 24.883 14.8944 24.0615 14.3693 23.3078C13.8371 22.5399 13.0835 21.622 12.1691 20.504L9.40457 22.7649ZM7.40081 19.7218C7.5794 20.2933 7.87228 20.779 8.19731 21.2362C8.51163 21.6755 8.92596 22.1827 9.40457 22.7649L12.1691 20.504C11.8022 20.067 11.4484 19.6192 11.1083 19.161C10.9815 19.0015 10.878 18.8247 10.8011 18.636L7.40081 19.7218ZM7.58654 15.9643C7.07246 17.1531 7.00648 18.488 7.40081 19.7218L10.8011 18.636C10.671 18.2251 10.6939 17.7811 10.8654 17.3858L7.58654 15.9643ZM9.88676 13.1354C9.351 13.6676 8.88667 14.1284 8.52949 14.5391C8.14095 14.9607 7.82259 15.4418 7.58654 15.9643L10.8654 17.3858C10.9604 17.2054 11.0807 17.0358 11.2226 16.8894C11.6049 16.4664 12.0016 16.0566 12.412 15.6607L9.88676 13.1354ZM13.0764 9.94227L9.88676 13.1354L12.412 15.6607L15.6016 12.4675L13.0764 9.94227ZM15.9052 7.64562C15.3828 7.88167 14.9016 8.20003 14.4801 8.58857C14.0729 8.94575 13.6085 9.40651 13.0764 9.94227L15.6016 12.4675C16.1695 11.9032 16.5338 11.5389 16.8303 11.2781C17.116 11.0281 17.2517 10.9567 17.3268 10.9209L15.9052 7.64562ZM19.6663 7.45632C18.431 7.06222 17.0947 7.12948 15.9052 7.64562L17.3268 10.9209C17.7221 10.7494 18.1661 10.7301 18.5769 10.8602L19.6663 7.45632ZM22.7094 9.46365C22.1236 8.98504 21.62 8.57071 21.1771 8.2564C20.7196 7.91055 20.2095 7.64042 19.6663 7.45632L18.5769 10.8602C18.7666 10.9357 18.9447 11.0379 19.1055 11.1638C19.427 11.396 19.827 11.721 20.4485 12.2282L22.7094 9.46365ZM26.2383 12.0103C26.174 11.9996 25.9276 11.9389 25.2882 11.496C24.4049 10.848 23.5447 10.1725 22.7094 9.46365L20.4485 12.2282C21.5629 13.1426 22.4844 13.8962 23.2487 14.4284C23.9988 14.9499 24.8275 15.4214 25.7633 15.5499L26.2383 12.0103ZM27.8956 11.321C27.7048 11.5719 27.451 11.7679 27.1599 11.889C26.8688 12.0101 26.5508 12.0519 26.2383 12.0103L25.7633 15.5499C26.7004 15.6766 27.6543 15.5494 28.5282 15.1881C29.4021 14.8267 30.1648 14.2405 30.7387 13.489L27.8956 11.321ZM28.5921 7.02771C28.4421 8.52071 28.3421 9.53866 28.2064 10.2852C28.0671 11.0495 27.9385 11.2674 27.8956 11.321L30.7387 13.489C31.3102 12.739 31.5603 11.821 31.721 10.9174C31.8853 9.99942 32.0067 8.81716 32.1496 7.38131L28.5921 7.02771ZM29.3279 3.45594C29.0529 3.99171 28.9136 4.53819 28.8207 5.09181C28.7314 5.62757 28.6671 6.27407 28.5921 7.02771L32.146 7.38489C32.1956 6.8151 32.2623 6.24693 32.346 5.68115C32.3704 5.47943 32.4233 5.2822 32.5032 5.09538L29.3279 3.45594ZM32.121 0.930699C30.9145 1.40765 29.9221 2.30263 29.3279 3.45594L32.5032 5.09538C32.7007 4.71137 33.0306 4.41191 33.4319 4.25244L32.121 0.930699ZM35.7428 0.555664C34.9892 0.555664 34.3355 0.555664 33.7926 0.591382C33.2209 0.614498 32.6565 0.729055 32.121 0.930699L33.4319 4.25244C33.6263 4.19196 33.8283 4.15948 34.0319 4.15601C34.4248 4.12743 34.9427 4.12743 35.7464 4.12743L35.7428 0.555664ZM40.2575 0.555664H35.7428V4.12743H40.2575V0.555664ZM43.8829 0.930699C43.3451 0.728307 42.7783 0.613737 42.2041 0.591382C41.6648 0.555664 41.0112 0.555664 40.2575 0.555664V4.12743C41.0576 4.12743 41.5719 4.12743 41.9684 4.15601C42.172 4.15948 42.374 4.19196 42.5684 4.25244L43.8829 0.930699ZM46.6724 3.45594C46.0776 2.30397 45.0852 1.40677 43.8793 0.930699L42.5684 4.25244C42.9697 4.41191 43.2996 4.71137 43.4971 5.09538L46.6724 3.45594ZM50.5013 38.0557C50.5013 41.3712 49.1843 44.5509 46.8398 46.8953C44.4954 49.2398 41.3157 50.5569 38.0002 50.5569V54.1286C42.263 54.1286 46.3512 52.4352 49.3654 49.421C52.3797 46.4067 54.0731 42.3185 54.0731 38.0557H50.5013ZM38.0002 25.5545C41.3157 25.5545 44.4954 26.8716 46.8398 29.216C49.1843 31.5604 50.5013 34.7401 50.5013 38.0557H54.0731C54.0731 33.7928 52.3797 29.7046 49.3654 26.6904C46.3512 23.6761 42.263 21.9827 38.0002 21.9827V25.5545ZM25.499 38.0557C25.499 34.7401 26.816 31.5604 29.1605 29.216C31.5049 26.8716 34.6846 25.5545 38.0002 25.5545V21.9827C33.7373 21.9827 29.6491 23.6761 26.6349 26.6904C23.6206 29.7046 21.9272 33.7928 21.9272 38.0557H25.499ZM38.0002 50.5569C34.6846 50.5569 31.5049 49.2398 29.1605 46.8953C26.816 44.5509 25.499 41.3712 25.499 38.0557H21.9272C21.9272 42.3185 23.6206 46.4067 26.6349 49.421C29.6491 52.4352 33.7373 54.1286 38.0002 54.1286V50.5569Z" fill="black" fill-opacity="0.2"/>
<path d="M68.8531 45.685L68.6745 43.9098L68.6209 43.9134L68.5602 43.9241L68.8531 45.685ZM68.8531 45.685L69.0317 47.4637L69.0924 47.4566L69.1495 47.4458L68.8531 45.685ZM54.4231 65.2654L55.5554 63.8831L55.5375 63.8724L54.4231 65.2654ZM54.4231 65.2654L53.2909 66.6477L53.3088 66.662L54.4231 65.2654ZM21.5772 65.2654L20.4449 63.8867L20.4199 63.9081L20.3913 63.9331L21.5772 65.2654ZM21.5772 65.2654L22.7094 66.6512L22.738 66.6262L22.763 66.6048L21.5772 65.2654ZM7.14364 30.4264V28.6405H7.05792L6.96863 28.6476L7.14364 30.4264ZM7.14364 30.4264V32.2122H7.23294L7.32223 32.2015L7.14364 30.4264ZM47.401 7.02057C47.3481 6.37289 47.273 5.72722 47.176 5.08467C47.0958 4.51571 46.9245 3.96336 46.6688 3.4488L43.4935 5.08824C43.5293 5.15967 43.59 5.30254 43.6507 5.67401C43.7186 6.0669 43.7686 6.57767 43.8507 7.37417L47.401 7.02057ZM48.1011 11.3174C48.0583 11.2638 47.9297 11.0459 47.7904 10.2816C47.6234 9.19947 47.4983 8.11178 47.4082 7.02057L43.8507 7.37417C43.9936 8.80645 44.1114 9.99228 44.2757 10.9138C44.4365 11.8139 44.6865 12.7318 45.2616 13.4855L48.1011 11.3174ZM49.7584 12.0032C49.4462 12.0452 49.1285 12.0039 48.8374 11.8834C48.5464 11.763 48.2923 11.5677 48.1011 11.3174L45.258 13.4819C45.8316 14.2341 46.5941 14.8209 47.468 15.1829C48.3419 15.5449 49.296 15.6691 50.2335 15.5428L49.7584 12.0032ZM53.2873 9.45651C52.1265 10.4102 51.3336 11.0567 50.7085 11.4888C50.0692 11.9317 49.8227 11.9925 49.7584 12.0032L50.2335 15.5428C51.1693 15.4178 51.9943 14.9463 52.748 14.4213C53.5159 13.8855 54.4339 13.1354 55.5518 12.2211L53.2873 9.45651ZM56.3305 7.45275C55.759 7.63491 55.2768 7.92422 54.8196 8.24925C54.3767 8.56357 53.8731 8.97789 53.2873 9.45651L55.5518 12.2211C56.1697 11.7139 56.5698 11.3888 56.8912 11.1602C57.0519 11.0331 57.2299 10.9297 57.4199 10.8531L56.3305 7.45275ZM60.0915 7.63848C58.9016 7.12351 57.5653 7.05752 56.3305 7.45275L57.4199 10.8531C57.8307 10.723 58.2747 10.7458 58.67 10.9174L60.0915 7.63848ZM62.9204 9.9387C62.3846 9.40293 61.9239 8.9386 61.5167 8.58143C61.0951 8.19289 60.614 7.87453 60.0915 7.63848L58.67 10.9174C58.745 10.9495 58.8807 11.0245 59.1665 11.2745C59.4629 11.5317 59.8272 11.896 60.3951 12.4639L62.9204 9.9387ZM66.11 13.1283L62.9204 9.9387L60.3951 12.4639L63.5847 15.6535L66.11 13.1283ZM68.4102 15.9571C68.1731 15.4345 67.8535 14.9533 67.4637 14.532C67.1065 14.1248 66.6422 13.6641 66.11 13.1283L63.5847 15.6535C64.1526 16.2214 64.5134 16.5858 64.7777 16.8822C65.0277 17.168 65.0992 17.3037 65.1313 17.3787L68.4102 15.9571ZM68.5959 19.7182C68.9911 18.4833 68.9252 17.147 68.4102 15.9571L65.1313 17.3787C65.3017 17.7744 65.3232 18.2184 65.192 18.6288L68.5959 19.7182ZM66.5922 22.7613C67.0708 22.1756 67.4851 21.672 67.7994 21.2291C68.1209 20.7719 68.4138 20.2897 68.5959 19.7182L65.192 18.6288C65.1165 18.8186 65.0143 18.9966 64.8884 19.1574C64.5482 19.6144 64.1945 20.0611 63.8276 20.4968L66.5922 22.7613ZM64.0455 26.2903C64.0562 26.226 64.1169 25.9795 64.5598 25.3402C64.992 24.7151 65.6385 23.9222 66.5922 22.7613L63.8276 20.4968C62.9132 21.6148 62.1596 22.5328 61.6274 23.3007C61.1023 24.0508 60.6309 24.8794 60.5059 25.8152L64.0455 26.2903ZM64.7313 27.9476C64.481 27.7563 64.2857 27.5023 64.1652 27.2112C64.0448 26.9202 64.0035 26.6024 64.0455 26.2903L60.5059 25.8152C60.3803 26.7521 60.5047 27.7055 60.8667 28.5787C61.2287 29.4519 61.8152 30.2138 62.5668 30.7871L64.7313 27.9476ZM69.0281 28.6441C67.5315 28.494 66.5172 28.394 65.7671 28.2583C65.0027 28.119 64.7848 27.9904 64.7313 27.9476L62.5668 30.7871C63.3168 31.3586 64.2348 31.6086 65.1385 31.7729C66.0564 31.9372 67.2386 32.0587 68.6745 32.2015L69.0281 28.6441ZM72.5999 29.3798C72.0853 29.1241 71.533 28.9529 70.964 28.8726C70.4282 28.7833 69.7782 28.7191 69.0281 28.6441L68.6709 32.198C69.471 32.2801 69.9818 32.3301 70.3747 32.398C70.5764 32.4223 70.7736 32.4752 70.9604 32.5551L72.5999 29.3798ZM75.1251 32.1694C74.6483 30.9648 73.7512 29.9738 72.5999 29.3798L70.9604 32.5551C71.3444 32.7526 71.6439 33.0825 71.8034 33.4838L75.1251 32.1694ZM75.5002 35.7947C75.5002 35.0411 75.5002 34.3875 75.4644 33.8445C75.4417 33.2716 75.3271 32.706 75.1251 32.1694L71.8034 33.4838C71.8319 33.5588 71.8748 33.7088 71.8998 34.0839C71.9265 34.6549 71.936 35.2267 71.9284 35.7983L75.5002 35.7947ZM75.5002 40.3094V35.7947H71.9284V40.3094H75.5002ZM75.1251 43.9312C75.3466 43.374 75.4287 42.8168 75.4644 42.2561C75.5002 41.7167 75.5002 41.0631 75.5002 40.3094H71.9284C71.9284 41.1095 71.9284 41.6239 71.8998 42.0203C71.8963 42.2239 71.8639 42.426 71.8034 42.6204L75.1251 43.9312ZM72.5999 46.7243C73.7518 46.1295 74.649 45.1371 75.1251 43.9312L71.8034 42.6204C71.6439 43.0217 71.3444 43.3516 70.9604 43.549L72.5999 46.7243ZM69.0281 47.4601C69.7782 47.3851 70.4318 47.3173 70.964 47.228C71.5176 47.1387 72.0641 46.9994 72.5963 46.7279L70.9604 43.549C70.7736 43.6289 70.5764 43.6818 70.3747 43.7062C69.9818 43.7741 69.471 43.8241 68.6745 43.9062L69.0281 47.4601ZM64.7348 48.1566C64.7884 48.1138 65.0063 47.9816 65.7707 47.8459C66.5207 47.7102 67.5351 47.6066 69.0281 47.4601L68.6745 43.9062C67.2422 44.0491 66.0564 44.1634 65.1349 44.3313C64.2348 44.492 63.3204 44.742 62.5668 45.3135L64.7348 48.1566ZM64.0455 49.8139C64.0039 49.5014 64.0457 49.1835 64.1668 48.8924C64.2879 48.6013 64.4839 48.3474 64.7348 48.1566L62.5668 45.3135C61.8146 45.8871 61.2277 46.6496 60.8657 47.5235C60.5038 48.3974 60.3796 49.3515 60.5059 50.289L64.0455 49.8139ZM66.5922 53.3428C65.8845 52.5075 65.2067 51.6473 64.5598 50.764C64.1169 50.1282 64.0562 49.8782 64.0455 49.8139L60.5094 50.2925C60.6344 51.2283 61.1059 52.0498 61.6274 52.8035C62.1632 53.5678 62.9132 54.4894 63.8276 55.6038L66.5922 53.3428ZM68.5959 56.386C68.4133 55.8418 68.1443 55.3304 67.7994 54.8715C67.4125 54.3499 67.0099 53.8401 66.5922 53.3428L63.8276 55.6038C64.3348 56.2252 64.6598 56.6217 64.8884 56.9467C65.014 57.1065 65.1162 57.2833 65.192 57.4718L68.5959 56.386ZM68.4102 60.147C68.9252 58.9571 68.9911 57.6208 68.5959 56.386L65.192 57.4718C65.3241 57.8833 65.3026 58.3287 65.1313 58.7255L68.4102 60.147ZM66.1135 62.9723C66.6457 62.4401 67.1065 61.9794 67.4637 61.5722C67.8351 61.1471 68.1709 60.7007 68.4102 60.147L65.1313 58.7255C65.0363 58.9059 64.916 59.0719 64.7741 59.2184C64.39 59.6397 63.9934 60.0495 63.5847 60.4471L66.1135 62.9723ZM62.9204 66.1655L66.1135 62.9723L63.5847 60.4471L60.3951 63.6402L62.9204 66.1655ZM60.0915 68.4621C60.6416 68.2228 61.0916 67.8906 61.5167 67.5192C61.9239 67.162 62.3846 66.6977 62.9204 66.1619L60.3951 63.6402C59.8272 64.2082 59.4629 64.5689 59.1665 64.8296C59.0189 64.9718 58.8517 65.0921 58.67 65.1868L60.0915 68.4621ZM56.3305 68.6514C57.5658 69.0455 58.9021 68.9783 60.0915 68.4621L58.67 65.1868C58.2742 65.3572 57.8302 65.3788 57.4199 65.2475L56.3305 68.6514ZM53.2873 66.6441C53.8731 67.1227 54.3767 67.537 54.8196 67.8514C55.2768 68.1764 55.759 68.4693 56.3305 68.6514L57.4199 65.2475C57.2301 65.1721 57.0521 65.0698 56.8912 64.9439C56.4342 64.6026 55.9876 64.2476 55.5518 63.8795L53.2873 66.6441ZM49.7584 64.101C49.8227 64.1081 50.0727 64.1724 50.7085 64.6153C51.3336 65.0475 52.1265 65.694 53.2873 66.6441L55.5518 63.8795C54.4339 62.9687 53.5159 62.2151 52.748 61.6793C51.9979 61.1579 51.1693 60.6864 50.2335 60.5614L49.7584 64.101ZM48.1011 64.7868C48.2923 64.5365 48.5464 64.3412 48.8374 64.2207C49.1285 64.1003 49.4462 64.059 49.7584 64.101L50.2335 60.5614C49.2969 60.4354 48.3437 60.5593 47.4705 60.9206C46.5973 61.2819 45.8352 61.8678 45.2616 62.6187L48.1011 64.7868ZM47.4046 69.0836C47.5546 67.587 47.6546 66.5727 47.7904 65.8226C47.9297 65.0582 48.0583 64.8404 48.1011 64.7868L45.2616 62.6187C44.6901 63.3688 44.44 64.2903 44.2757 65.1904C44.1114 66.1083 43.99 67.2906 43.8471 68.7264L47.4046 69.0836ZM46.6688 72.6554C46.9439 72.1196 47.0796 71.5731 47.1725 71.0195C47.2653 70.4837 47.3296 69.8337 47.4046 69.0836L43.8471 68.7264C43.7975 69.2962 43.7344 69.8644 43.6507 70.4302C43.6263 70.6319 43.5734 70.8291 43.4935 71.0159L46.6688 72.6554ZM43.8793 75.1806C45.0839 74.7038 46.0749 73.8067 46.6688 72.6554L43.4935 71.0159C43.2961 71.4 42.9662 71.6994 42.5649 71.8589L43.8793 75.1806ZM40.2539 75.5557C41.0076 75.5557 41.6612 75.5557 42.2041 75.5199C42.7613 75.4842 43.3221 75.4021 43.8793 75.1806L42.5649 71.8589C42.3704 71.9194 42.1684 71.9518 41.9648 71.9553C41.5719 71.9839 41.054 71.9839 40.2504 71.9839L40.2539 75.5557ZM35.7392 75.5557H40.2539L40.2504 71.9839H35.7392V75.5557ZM32.1139 75.1806C32.6746 75.4021 33.2318 75.4842 33.7926 75.5199C34.3319 75.5557 34.9856 75.5557 35.7392 75.5557V71.9839C34.9391 71.9839 34.4248 71.9839 34.0283 71.9553C33.8248 71.9518 33.6227 71.9194 33.4283 71.8589L32.1139 75.1806ZM29.3243 72.6554C29.9183 73.8067 30.9093 74.7038 32.1139 75.1806L33.4283 71.8589C33.027 71.6994 32.6971 71.4 32.4996 71.0159L29.3243 72.6554ZM28.5885 69.0836C28.66 69.8385 28.7362 70.4837 28.8171 71.0195C28.91 71.5731 29.0493 72.1196 29.3243 72.6554L32.4996 71.0159C32.4197 70.8291 32.3668 70.6319 32.3425 70.4302C32.2588 69.8656 32.1921 69.2986 32.1425 68.73L28.5885 69.0836ZM27.892 64.7868C27.9349 64.8404 28.0635 65.0582 28.2028 65.8226C28.3385 66.5727 28.4385 67.5906 28.5885 69.0836L32.1425 68.73C31.9996 67.2977 31.8817 66.1119 31.7174 65.1904C31.5567 64.2903 31.3067 63.3724 30.7316 62.6187L27.892 64.7868ZM26.2347 64.101C26.5469 64.059 26.8647 64.1003 27.1557 64.2207C27.4468 64.3412 27.7008 64.5365 27.892 64.7868L30.7316 62.6187C30.1583 61.8671 29.3964 61.2842 28.5232 60.9222C27.65 60.5603 26.6966 60.4358 25.7597 60.5614L26.2347 64.101ZM22.7058 66.6477C23.8667 65.694 24.6596 65.0475 25.2847 64.6153C25.924 64.1724 26.1705 64.1081 26.2347 64.101L25.7597 60.5614C24.8239 60.6864 23.9988 61.1579 23.2452 61.6829C22.4772 62.2151 21.5593 62.9688 20.4413 63.8831L22.7058 66.6477ZM19.6627 68.6514C20.2342 68.4693 20.7164 68.18 21.1735 67.8549C21.6164 67.5406 22.1201 67.1263 22.7058 66.6477L20.4413 63.8831C20.0055 64.25 19.5589 64.6038 19.1019 64.9439C18.9411 65.0698 18.7631 65.1721 18.5733 65.2475L19.6627 68.6514ZM15.9016 68.4693C17.0915 68.9842 18.4278 69.0467 19.6627 68.6514L18.5733 65.2475C18.1629 65.3788 17.7189 65.3572 17.3232 65.1868L15.9016 68.4693ZM13.0728 66.1655C13.6085 66.7012 14.0693 67.1656 14.4765 67.5228C14.898 67.8906 15.3516 68.23 15.9016 68.4693L17.3232 65.1868C17.1415 65.0921 16.9743 64.9718 16.8267 64.8296C16.4054 64.4455 15.9956 64.0489 15.598 63.6402L13.0728 66.1655ZM9.88319 62.9759L13.0728 66.1655L15.598 63.6402L12.4084 60.4507L9.88319 62.9759ZM7.58297 60.147C7.82228 60.6971 8.15803 61.1471 8.52949 61.5722C8.88667 61.9794 9.351 62.4401 9.88319 62.9759L12.4084 60.4507C11.9986 60.0531 11.6008 59.6434 11.2155 59.222C11.0733 59.0744 10.953 58.9072 10.8583 58.7255L7.58297 60.147ZM7.39724 56.386C7.00201 57.6208 7.068 58.9571 7.58297 60.147L10.8583 58.7255C10.6867 58.3302 10.6675 57.8862 10.7976 57.4754L7.39724 56.386ZM9.401 53.3428C8.92238 53.9286 8.50806 54.4322 8.19374 54.8751C7.84916 55.3329 7.58024 55.843 7.39724 56.386L10.7976 57.4754C10.8742 57.2854 10.9776 57.1074 11.1047 56.9467C11.3333 56.6253 11.6584 56.2252 12.1656 55.6073L9.401 53.3428ZM11.9477 49.8139C11.937 49.8782 11.8762 50.1247 11.4333 50.764C10.9976 51.3891 10.3547 52.182 9.401 53.3428L12.1656 55.6073C13.0799 54.4894 13.8336 53.5714 14.3658 52.8035C14.8908 52.0534 15.3623 51.2248 15.4873 50.289L11.9477 49.8139ZM11.2619 48.1566C11.5122 48.3478 11.7075 48.6019 11.8279 48.8929C11.9484 49.184 11.9897 49.5017 11.9477 49.8139L15.4873 50.289C15.6129 49.3521 15.4884 48.3987 15.1265 47.5255C14.7645 46.6522 14.178 45.8903 13.4264 45.3171L11.2619 48.1566ZM6.96505 47.4637C8.46163 47.6101 9.47601 47.7102 10.2261 47.8459C10.9904 47.9852 11.2083 48.1138 11.2619 48.1566L13.4264 45.3135C12.6763 44.742 11.7584 44.492 10.8547 44.3313C9.93677 44.167 8.75451 44.0455 7.31866 43.9026L6.96505 47.4637ZM3.39329 46.7243C3.92905 46.9994 4.47553 47.1351 5.02916 47.228C5.56492 47.3208 6.21141 47.3887 6.96505 47.4637L7.32223 43.9062C6.75245 43.8566 6.18428 43.7899 5.6185 43.7062C5.41678 43.6818 5.21955 43.6289 5.03273 43.549L3.39329 46.7243ZM0.868046 43.9312C1.34412 45.1371 2.24132 46.1295 3.39329 46.7243L5.03273 43.549C4.64872 43.3516 4.34926 43.0217 4.18979 42.6204L0.868046 43.9312ZM0.496582 40.3166C0.496582 41.0702 0.496582 41.7239 0.5323 42.2668C0.555416 42.8385 0.669973 43.4029 0.871618 43.9384L4.19336 42.6275C4.13287 42.4331 4.1004 42.2311 4.09692 42.0275C4.07025 41.4564 4.06072 40.8847 4.06835 40.313L0.496582 40.3166ZM0.496582 35.8019V40.3166H4.06835V35.8019H0.496582ZM0.871618 32.1765C0.669225 32.7143 0.554655 33.2811 0.5323 33.8553C0.496582 34.3946 0.496582 35.0482 0.496582 35.8019H4.06835C4.06835 35.0018 4.06835 34.4875 4.09692 34.091C4.1004 33.8874 4.13287 33.6854 4.19336 33.4909L0.871618 32.1765ZM3.39686 29.387C2.24553 29.9809 1.34842 30.972 0.871618 32.1765L4.19336 33.4909C4.35283 33.0897 4.65229 32.7597 5.0363 32.5623L3.39686 29.387ZM6.96863 28.6476C6.21379 28.7191 5.56849 28.7988 5.03273 28.8798C4.46377 28.96 3.91142 29.1313 3.39686 29.387L5.0363 32.5623C5.10773 32.5266 5.25061 32.4658 5.62207 32.4051C6.01496 32.3373 6.52573 32.2873 7.32223 32.2051L6.96863 28.6476ZM11.2655 27.9547C11.2119 27.9976 10.994 28.1261 10.2297 28.2654C9.47958 28.4012 8.4652 28.4976 6.96863 28.6476L7.32223 32.2051C8.75451 32.0622 9.94391 31.9444 10.8619 31.7801C11.7655 31.6193 12.6835 31.3693 13.4335 30.7943L11.2655 27.9547ZM11.9512 26.2974C11.9932 26.6096 11.9519 26.9273 11.8315 27.2184C11.7111 27.5094 11.5158 27.7635 11.2655 27.9547L13.4335 30.7943C14.1845 30.2206 14.7703 29.4585 15.1316 28.5853C15.4929 27.7121 15.6169 26.7553 15.4909 25.8188L11.9512 26.2974ZM9.40457 22.7649C10.3582 23.9293 11.0047 24.7223 11.4405 25.3473C11.8834 25.9867 11.9405 26.2331 11.9512 26.2974L15.4909 25.8188C15.3659 24.883 14.8944 24.0615 14.3693 23.3078C13.8371 22.5399 13.0835 21.622 12.1691 20.504L9.40457 22.7649ZM7.40081 19.7218C7.5794 20.2933 7.87228 20.779 8.19731 21.2362C8.51163 21.6755 8.92596 22.1827 9.40457 22.7649L12.1691 20.504C11.8022 20.067 11.4484 19.6192 11.1083 19.161C10.9815 19.0015 10.878 18.8247 10.8011 18.636L7.40081 19.7218ZM7.58654 15.9643C7.07246 17.1531 7.00648 18.488 7.40081 19.7218L10.8011 18.636C10.671 18.2251 10.6939 17.7811 10.8654 17.3858L7.58654 15.9643ZM9.88676 13.1354C9.351 13.6676 8.88667 14.1284 8.52949 14.5391C8.14095 14.9607 7.82259 15.4418 7.58654 15.9643L10.8654 17.3858C10.9604 17.2054 11.0807 17.0358 11.2226 16.8894C11.6049 16.4664 12.0016 16.0566 12.412 15.6607L9.88676 13.1354ZM13.0764 9.94227L9.88676 13.1354L12.412 15.6607L15.6016 12.4675L13.0764 9.94227ZM15.9052 7.64562C15.3828 7.88167 14.9016 8.20003 14.4801 8.58857C14.0729 8.94575 13.6085 9.40651 13.0764 9.94227L15.6016 12.4675C16.1695 11.9032 16.5338 11.5389 16.8303 11.2781C17.116 11.0281 17.2517 10.9567 17.3268 10.9209L15.9052 7.64562ZM19.6663 7.45632C18.431 7.06222 17.0947 7.12948 15.9052 7.64562L17.3268 10.9209C17.7221 10.7494 18.1661 10.7301 18.5769 10.8602L19.6663 7.45632ZM22.7094 9.46365C22.1236 8.98504 21.62 8.57071 21.1771 8.2564C20.7196 7.91055 20.2095 7.64042 19.6663 7.45632L18.5769 10.8602C18.7666 10.9357 18.9447 11.0379 19.1055 11.1638C19.427 11.396 19.827 11.721 20.4485 12.2282L22.7094 9.46365ZM26.2383 12.0103C26.174 11.9996 25.9276 11.9389 25.2882 11.496C24.4049 10.848 23.5447 10.1725 22.7094 9.46365L20.4485 12.2282C21.5629 13.1426 22.4844 13.8962 23.2487 14.4284C23.9988 14.9499 24.8275 15.4214 25.7633 15.5499L26.2383 12.0103ZM27.8956 11.321C27.7048 11.5719 27.451 11.7679 27.1599 11.889C26.8688 12.0101 26.5508 12.0519 26.2383 12.0103L25.7633 15.5499C26.7004 15.6766 27.6543 15.5494 28.5282 15.1881C29.4021 14.8267 30.1648 14.2405 30.7387 13.489L27.8956 11.321ZM28.5921 7.02771C28.4421 8.52071 28.3421 9.53866 28.2064 10.2852C28.0671 11.0495 27.9385 11.2674 27.8956 11.321L30.7387 13.489C31.3102 12.739 31.5603 11.821 31.721 10.9174C31.8853 9.99942 32.0067 8.81716 32.1496 7.38131L28.5921 7.02771ZM29.3279 3.45594C29.0529 3.99171 28.9136 4.53819 28.8207 5.09181C28.7314 5.62757 28.6671 6.27407 28.5921 7.02771L32.146 7.38489C32.1956 6.8151 32.2623 6.24693 32.346 5.68115C32.3704 5.47943 32.4233 5.2822 32.5032 5.09538L29.3279 3.45594ZM32.121 0.930699C30.9145 1.40765 29.9221 2.30263 29.3279 3.45594L32.5032 5.09538C32.7007 4.71137 33.0306 4.41191 33.4319 4.25244L32.121 0.930699ZM35.7428 0.555664C34.9892 0.555664 34.3355 0.555664 33.7926 0.591382C33.2209 0.614498 32.6565 0.729055 32.121 0.930699L33.4319 4.25244C33.6263 4.19196 33.8283 4.15948 34.0319 4.15601C34.4248 4.12743 34.9427 4.12743 35.7464 4.12743L35.7428 0.555664ZM40.2575 0.555664H35.7428V4.12743H40.2575V0.555664ZM43.8829 0.930699C43.3451 0.728307 42.7783 0.613737 42.2041 0.591382C41.6648 0.555664 41.0112 0.555664 40.2575 0.555664V4.12743C41.0576 4.12743 41.5719 4.12743 41.9684 4.15601C42.172 4.15948 42.374 4.19196 42.5684 4.25244L43.8829 0.930699ZM46.6724 3.45594C46.0776 2.30397 45.0852 1.40677 43.8793 0.930699L42.5684 4.25244C42.9697 4.41191 43.2996 4.71137 43.4971 5.09538L46.6724 3.45594ZM50.5013 38.0557C50.5013 41.3712 49.1843 44.5509 46.8398 46.8953C44.4954 49.2398 41.3157 50.5569 38.0002 50.5569V54.1286C42.263 54.1286 46.3512 52.4352 49.3654 49.421C52.3797 46.4067 54.0731 42.3185 54.0731 38.0557H50.5013ZM38.0002 25.5545C41.3157 25.5545 44.4954 26.8716 46.8398 29.216C49.1843 31.5604 50.5013 34.7401 50.5013 38.0557H54.0731C54.0731 33.7928 52.3797 29.7046 49.3654 26.6904C46.3512 23.6761 42.263 21.9827 38.0002 21.9827V25.5545ZM25.499 38.0557C25.499 34.7401 26.816 31.5604 29.1605 29.216C31.5049 26.8716 34.6846 25.5545 38.0002 25.5545V21.9827C33.7373 21.9827 29.6491 23.6761 26.6349 26.6904C23.6206 29.7046 21.9272 33.7928 21.9272 38.0557H25.499ZM38.0002 50.5569C34.6846 50.5569 31.5049 49.2398 29.1605 46.8953C26.816 44.5509 25.499 41.3712 25.499 38.0557H21.9272C21.9272 42.3185 23.6206 46.4067 26.6349 49.421C29.6491 52.4352 33.7373 54.1286 38.0002 54.1286V50.5569Z" fill="black" fill-opacity="0.2"/>
<path d="M68.8531 45.685L68.6745 43.9098L68.6209 43.9134L68.5602 43.9241L68.8531 45.685ZM68.8531 45.685L69.0317 47.4637L69.0924 47.4566L69.1495 47.4458L68.8531 45.685ZM54.4231 65.2654L55.5554 63.8831L55.5375 63.8724L54.4231 65.2654ZM54.4231 65.2654L53.2909 66.6477L53.3088 66.662L54.4231 65.2654ZM21.5772 65.2654L20.4449 63.8867L20.4199 63.9081L20.3913 63.9331L21.5772 65.2654ZM21.5772 65.2654L22.7094 66.6512L22.738 66.6262L22.763 66.6048L21.5772 65.2654ZM7.14364 30.4264V28.6405H7.05792L6.96863 28.6476L7.14364 30.4264ZM7.14364 30.4264V32.2122H7.23294L7.32223 32.2015L7.14364 30.4264ZM47.401 7.02057C47.3481 6.37289 47.273 5.72722 47.176 5.08467C47.0958 4.51571 46.9245 3.96336 46.6688 3.4488L43.4935 5.08824C43.5293 5.15967 43.59 5.30254 43.6507 5.67401C43.7186 6.0669 43.7686 6.57767 43.8507 7.37417L47.401 7.02057ZM48.1011 11.3174C48.0583 11.2638 47.9297 11.0459 47.7904 10.2816C47.6234 9.19947 47.4983 8.11178 47.4082 7.02057L43.8507 7.37417C43.9936 8.80645 44.1114 9.99228 44.2757 10.9138C44.4365 11.8139 44.6865 12.7318 45.2616 13.4855L48.1011 11.3174ZM49.7584 12.0032C49.4462 12.0452 49.1285 12.0039 48.8374 11.8834C48.5464 11.763 48.2923 11.5677 48.1011 11.3174L45.258 13.4819C45.8316 14.2341 46.5941 14.8209 47.468 15.1829C48.3419 15.5449 49.296 15.6691 50.2335 15.5428L49.7584 12.0032ZM53.2873 9.45651C52.1265 10.4102 51.3336 11.0567 50.7085 11.4888C50.0692 11.9317 49.8227 11.9925 49.7584 12.0032L50.2335 15.5428C51.1693 15.4178 51.9943 14.9463 52.748 14.4213C53.5159 13.8855 54.4339 13.1354 55.5518 12.2211L53.2873 9.45651ZM56.3305 7.45275C55.759 7.63491 55.2768 7.92422 54.8196 8.24925C54.3767 8.56357 53.8731 8.97789 53.2873 9.45651L55.5518 12.2211C56.1697 11.7139 56.5698 11.3888 56.8912 11.1602C57.0519 11.0331 57.2299 10.9297 57.4199 10.8531L56.3305 7.45275ZM60.0915 7.63848C58.9016 7.12351 57.5653 7.05752 56.3305 7.45275L57.4199 10.8531C57.8307 10.723 58.2747 10.7458 58.67 10.9174L60.0915 7.63848ZM62.9204 9.9387C62.3846 9.40293 61.9239 8.9386 61.5167 8.58143C61.0951 8.19289 60.614 7.87453 60.0915 7.63848L58.67 10.9174C58.745 10.9495 58.8807 11.0245 59.1665 11.2745C59.4629 11.5317 59.8272 11.896 60.3951 12.4639L62.9204 9.9387ZM66.11 13.1283L62.9204 9.9387L60.3951 12.4639L63.5847 15.6535L66.11 13.1283ZM68.4102 15.9571C68.1731 15.4345 67.8535 14.9533 67.4637 14.532C67.1065 14.1248 66.6422 13.6641 66.11 13.1283L63.5847 15.6535C64.1526 16.2214 64.5134 16.5858 64.7777 16.8822C65.0277 17.168 65.0992 17.3037 65.1313 17.3787L68.4102 15.9571ZM68.5959 19.7182C68.9911 18.4833 68.9252 17.147 68.4102 15.9571L65.1313 17.3787C65.3017 17.7744 65.3232 18.2184 65.192 18.6288L68.5959 19.7182ZM66.5922 22.7613C67.0708 22.1756 67.4851 21.672 67.7994 21.2291C68.1209 20.7719 68.4138 20.2897 68.5959 19.7182L65.192 18.6288C65.1165 18.8186 65.0143 18.9966 64.8884 19.1574C64.5482 19.6144 64.1945 20.0611 63.8276 20.4968L66.5922 22.7613ZM64.0455 26.2903C64.0562 26.226 64.1169 25.9795 64.5598 25.3402C64.992 24.7151 65.6385 23.9222 66.5922 22.7613L63.8276 20.4968C62.9132 21.6148 62.1596 22.5328 61.6274 23.3007C61.1023 24.0508 60.6309 24.8794 60.5059 25.8152L64.0455 26.2903ZM64.7313 27.9476C64.481 27.7563 64.2857 27.5023 64.1652 27.2112C64.0448 26.9202 64.0035 26.6024 64.0455 26.2903L60.5059 25.8152C60.3803 26.7521 60.5047 27.7055 60.8667 28.5787C61.2287 29.4519 61.8152 30.2138 62.5668 30.7871L64.7313 27.9476ZM69.0281 28.6441C67.5315 28.494 66.5172 28.394 65.7671 28.2583C65.0027 28.119 64.7848 27.9904 64.7313 27.9476L62.5668 30.7871C63.3168 31.3586 64.2348 31.6086 65.1385 31.7729C66.0564 31.9372 67.2386 32.0587 68.6745 32.2015L69.0281 28.6441ZM72.5999 29.3798C72.0853 29.1241 71.533 28.9529 70.964 28.8726C70.4282 28.7833 69.7782 28.7191 69.0281 28.6441L68.6709 32.198C69.471 32.2801 69.9818 32.3301 70.3747 32.398C70.5764 32.4223 70.7736 32.4752 70.9604 32.5551L72.5999 29.3798ZM75.1251 32.1694C74.6483 30.9648 73.7512 29.9738 72.5999 29.3798L70.9604 32.5551C71.3444 32.7526 71.6439 33.0825 71.8034 33.4838L75.1251 32.1694ZM75.5002 35.7947C75.5002 35.0411 75.5002 34.3875 75.4644 33.8445C75.4417 33.2716 75.3271 32.706 75.1251 32.1694L71.8034 33.4838C71.8319 33.5588 71.8748 33.7088 71.8998 34.0839C71.9265 34.6549 71.936 35.2267 71.9284 35.7983L75.5002 35.7947ZM75.5002 40.3094V35.7947H71.9284V40.3094H75.5002ZM75.1251 43.9312C75.3466 43.374 75.4287 42.8168 75.4644 42.2561C75.5002 41.7167 75.5002 41.0631 75.5002 40.3094H71.9284C71.9284 41.1095 71.9284 41.6239 71.8998 42.0203C71.8963 42.2239 71.8639 42.426 71.8034 42.6204L75.1251 43.9312ZM72.5999 46.7243C73.7518 46.1295 74.649 45.1371 75.1251 43.9312L71.8034 42.6204C71.6439 43.0217 71.3444 43.3516 70.9604 43.549L72.5999 46.7243ZM69.0281 47.4601C69.7782 47.3851 70.4318 47.3173 70.964 47.228C71.5176 47.1387 72.0641 46.9994 72.5963 46.7279L70.9604 43.549C70.7736 43.6289 70.5764 43.6818 70.3747 43.7062C69.9818 43.7741 69.471 43.8241 68.6745 43.9062L69.0281 47.4601ZM64.7348 48.1566C64.7884 48.1138 65.0063 47.9816 65.7707 47.8459C66.5207 47.7102 67.5351 47.6066 69.0281 47.4601L68.6745 43.9062C67.2422 44.0491 66.0564 44.1634 65.1349 44.3313C64.2348 44.492 63.3204 44.742 62.5668 45.3135L64.7348 48.1566ZM64.0455 49.8139C64.0039 49.5014 64.0457 49.1835 64.1668 48.8924C64.2879 48.6013 64.4839 48.3474 64.7348 48.1566L62.5668 45.3135C61.8146 45.8871 61.2277 46.6496 60.8657 47.5235C60.5038 48.3974 60.3796 49.3515 60.5059 50.289L64.0455 49.8139ZM66.5922 53.3428C65.8845 52.5075 65.2067 51.6473 64.5598 50.764C64.1169 50.1282 64.0562 49.8782 64.0455 49.8139L60.5094 50.2925C60.6344 51.2283 61.1059 52.0498 61.6274 52.8035C62.1632 53.5678 62.9132 54.4894 63.8276 55.6038L66.5922 53.3428ZM68.5959 56.386C68.4133 55.8418 68.1443 55.3304 67.7994 54.8715C67.4125 54.3499 67.0099 53.8401 66.5922 53.3428L63.8276 55.6038C64.3348 56.2252 64.6598 56.6217 64.8884 56.9467C65.014 57.1065 65.1162 57.2833 65.192 57.4718L68.5959 56.386ZM68.4102 60.147C68.9252 58.9571 68.9911 57.6208 68.5959 56.386L65.192 57.4718C65.3241 57.8833 65.3026 58.3287 65.1313 58.7255L68.4102 60.147ZM66.1135 62.9723C66.6457 62.4401 67.1065 61.9794 67.4637 61.5722C67.8351 61.1471 68.1709 60.7007 68.4102 60.147L65.1313 58.7255C65.0363 58.9059 64.916 59.0719 64.7741 59.2184C64.39 59.6397 63.9934 60.0495 63.5847 60.4471L66.1135 62.9723ZM62.9204 66.1655L66.1135 62.9723L63.5847 60.4471L60.3951 63.6402L62.9204 66.1655ZM60.0915 68.4621C60.6416 68.2228 61.0916 67.8906 61.5167 67.5192C61.9239 67.162 62.3846 66.6977 62.9204 66.1619L60.3951 63.6402C59.8272 64.2082 59.4629 64.5689 59.1665 64.8296C59.0189 64.9718 58.8517 65.0921 58.67 65.1868L60.0915 68.4621ZM56.3305 68.6514C57.5658 69.0455 58.9021 68.9783 60.0915 68.4621L58.67 65.1868C58.2742 65.3572 57.8302 65.3788 57.4199 65.2475L56.3305 68.6514ZM53.2873 66.6441C53.8731 67.1227 54.3767 67.537 54.8196 67.8514C55.2768 68.1764 55.759 68.4693 56.3305 68.6514L57.4199 65.2475C57.2301 65.1721 57.0521 65.0698 56.8912 64.9439C56.4342 64.6026 55.9876 64.2476 55.5518 63.8795L53.2873 66.6441ZM49.7584 64.101C49.8227 64.1081 50.0727 64.1724 50.7085 64.6153C51.3336 65.0475 52.1265 65.694 53.2873 66.6441L55.5518 63.8795C54.4339 62.9687 53.5159 62.2151 52.748 61.6793C51.9979 61.1579 51.1693 60.6864 50.2335 60.5614L49.7584 64.101ZM48.1011 64.7868C48.2923 64.5365 48.5464 64.3412 48.8374 64.2207C49.1285 64.1003 49.4462 64.059 49.7584 64.101L50.2335 60.5614C49.2969 60.4354 48.3437 60.5593 47.4705 60.9206C46.5973 61.2819 45.8352 61.8678 45.2616 62.6187L48.1011 64.7868ZM47.4046 69.0836C47.5546 67.587 47.6546 66.5727 47.7904 65.8226C47.9297 65.0582 48.0583 64.8404 48.1011 64.7868L45.2616 62.6187C44.6901 63.3688 44.44 64.2903 44.2757 65.1904C44.1114 66.1083 43.99 67.2906 43.8471 68.7264L47.4046 69.0836ZM46.6688 72.6554C46.9439 72.1196 47.0796 71.5731 47.1725 71.0195C47.2653 70.4837 47.3296 69.8337 47.4046 69.0836L43.8471 68.7264C43.7975 69.2962 43.7344 69.8644 43.6507 70.4302C43.6263 70.6319 43.5734 70.8291 43.4935 71.0159L46.6688 72.6554ZM43.8793 75.1806C45.0839 74.7038 46.0749 73.8067 46.6688 72.6554L43.4935 71.0159C43.2961 71.4 42.9662 71.6994 42.5649 71.8589L43.8793 75.1806ZM40.2539 75.5557C41.0076 75.5557 41.6612 75.5557 42.2041 75.5199C42.7613 75.4842 43.3221 75.4021 43.8793 75.1806L42.5649 71.8589C42.3704 71.9194 42.1684 71.9518 41.9648 71.9553C41.5719 71.9839 41.054 71.9839 40.2504 71.9839L40.2539 75.5557ZM35.7392 75.5557H40.2539L40.2504 71.9839H35.7392V75.5557ZM32.1139 75.1806C32.6746 75.4021 33.2318 75.4842 33.7926 75.5199C34.3319 75.5557 34.9856 75.5557 35.7392 75.5557V71.9839C34.9391 71.9839 34.4248 71.9839 34.0283 71.9553C33.8248 71.9518 33.6227 71.9194 33.4283 71.8589L32.1139 75.1806ZM29.3243 72.6554C29.9183 73.8067 30.9093 74.7038 32.1139 75.1806L33.4283 71.8589C33.027 71.6994 32.6971 71.4 32.4996 71.0159L29.3243 72.6554ZM28.5885 69.0836C28.66 69.8385 28.7362 70.4837 28.8171 71.0195C28.91 71.5731 29.0493 72.1196 29.3243 72.6554L32.4996 71.0159C32.4197 70.8291 32.3668 70.6319 32.3425 70.4302C32.2588 69.8656 32.1921 69.2986 32.1425 68.73L28.5885 69.0836ZM27.892 64.7868C27.9349 64.8404 28.0635 65.0582 28.2028 65.8226C28.3385 66.5727 28.4385 67.5906 28.5885 69.0836L32.1425 68.73C31.9996 67.2977 31.8817 66.1119 31.7174 65.1904C31.5567 64.2903 31.3067 63.3724 30.7316 62.6187L27.892 64.7868ZM26.2347 64.101C26.5469 64.059 26.8647 64.1003 27.1557 64.2207C27.4468 64.3412 27.7008 64.5365 27.892 64.7868L30.7316 62.6187C30.1583 61.8671 29.3964 61.2842 28.5232 60.9222C27.65 60.5603 26.6966 60.4358 25.7597 60.5614L26.2347 64.101ZM22.7058 66.6477C23.8667 65.694 24.6596 65.0475 25.2847 64.6153C25.924 64.1724 26.1705 64.1081 26.2347 64.101L25.7597 60.5614C24.8239 60.6864 23.9988 61.1579 23.2452 61.6829C22.4772 62.2151 21.5593 62.9688 20.4413 63.8831L22.7058 66.6477ZM19.6627 68.6514C20.2342 68.4693 20.7164 68.18 21.1735 67.8549C21.6164 67.5406 22.1201 67.1263 22.7058 66.6477L20.4413 63.8831C20.0055 64.25 19.5589 64.6038 19.1019 64.9439C18.9411 65.0698 18.7631 65.1721 18.5733 65.2475L19.6627 68.6514ZM15.9016 68.4693C17.0915 68.9842 18.4278 69.0467 19.6627 68.6514L18.5733 65.2475C18.1629 65.3788 17.7189 65.3572 17.3232 65.1868L15.9016 68.4693ZM13.0728 66.1655C13.6085 66.7012 14.0693 67.1656 14.4765 67.5228C14.898 67.8906 15.3516 68.23 15.9016 68.4693L17.3232 65.1868C17.1415 65.0921 16.9743 64.9718 16.8267 64.8296C16.4054 64.4455 15.9956 64.0489 15.598 63.6402L13.0728 66.1655ZM9.88319 62.9759L13.0728 66.1655L15.598 63.6402L12.4084 60.4507L9.88319 62.9759ZM7.58297 60.147C7.82228 60.6971 8.15803 61.1471 8.52949 61.5722C8.88667 61.9794 9.351 62.4401 9.88319 62.9759L12.4084 60.4507C11.9986 60.0531 11.6008 59.6434 11.2155 59.222C11.0733 59.0744 10.953 58.9072 10.8583 58.7255L7.58297 60.147ZM7.39724 56.386C7.00201 57.6208 7.068 58.9571 7.58297 60.147L10.8583 58.7255C10.6867 58.3302 10.6675 57.8862 10.7976 57.4754L7.39724 56.386ZM9.401 53.3428C8.92238 53.9286 8.50806 54.4322 8.19374 54.8751C7.84916 55.3329 7.58024 55.843 7.39724 56.386L10.7976 57.4754C10.8742 57.2854 10.9776 57.1074 11.1047 56.9467C11.3333 56.6253 11.6584 56.2252 12.1656 55.6073L9.401 53.3428ZM11.9477 49.8139C11.937 49.8782 11.8762 50.1247 11.4333 50.764C10.9976 51.3891 10.3547 52.182 9.401 53.3428L12.1656 55.6073C13.0799 54.4894 13.8336 53.5714 14.3658 52.8035C14.8908 52.0534 15.3623 51.2248 15.4873 50.289L11.9477 49.8139ZM11.2619 48.1566C11.5122 48.3478 11.7075 48.6019 11.8279 48.8929C11.9484 49.184 11.9897 49.5017 11.9477 49.8139L15.4873 50.289C15.6129 49.3521 15.4884 48.3987 15.1265 47.5255C14.7645 46.6522 14.178 45.8903 13.4264 45.3171L11.2619 48.1566ZM6.96505 47.4637C8.46163 47.6101 9.47601 47.7102 10.2261 47.8459C10.9904 47.9852 11.2083 48.1138 11.2619 48.1566L13.4264 45.3135C12.6763 44.742 11.7584 44.492 10.8547 44.3313C9.93677 44.167 8.75451 44.0455 7.31866 43.9026L6.96505 47.4637ZM3.39329 46.7243C3.92905 46.9994 4.47553 47.1351 5.02916 47.228C5.56492 47.3208 6.21141 47.3887 6.96505 47.4637L7.32223 43.9062C6.75245 43.8566 6.18428 43.7899 5.6185 43.7062C5.41678 43.6818 5.21955 43.6289 5.03273 43.549L3.39329 46.7243ZM0.868046 43.9312C1.34412 45.1371 2.24132 46.1295 3.39329 46.7243L5.03273 43.549C4.64872 43.3516 4.34926 43.0217 4.18979 42.6204L0.868046 43.9312ZM0.496582 40.3166C0.496582 41.0702 0.496582 41.7239 0.5323 42.2668C0.555416 42.8385 0.669973 43.4029 0.871618 43.9384L4.19336 42.6275C4.13287 42.4331 4.1004 42.2311 4.09692 42.0275C4.07025 41.4564 4.06072 40.8847 4.06835 40.313L0.496582 40.3166ZM0.496582 35.8019V40.3166H4.06835V35.8019H0.496582ZM0.871618 32.1765C0.669225 32.7143 0.554655 33.2811 0.5323 33.8553C0.496582 34.3946 0.496582 35.0482 0.496582 35.8019H4.06835C4.06835 35.0018 4.06835 34.4875 4.09692 34.091C4.1004 33.8874 4.13287 33.6854 4.19336 33.4909L0.871618 32.1765ZM3.39686 29.387C2.24553 29.9809 1.34842 30.972 0.871618 32.1765L4.19336 33.4909C4.35283 33.0897 4.65229 32.7597 5.0363 32.5623L3.39686 29.387ZM6.96863 28.6476C6.21379 28.7191 5.56849 28.7988 5.03273 28.8798C4.46377 28.96 3.91142 29.1313 3.39686 29.387L5.0363 32.5623C5.10773 32.5266 5.25061 32.4658 5.62207 32.4051C6.01496 32.3373 6.52573 32.2873 7.32223 32.2051L6.96863 28.6476ZM11.2655 27.9547C11.2119 27.9976 10.994 28.1261 10.2297 28.2654C9.47958 28.4012 8.4652 28.4976 6.96863 28.6476L7.32223 32.2051C8.75451 32.0622 9.94391 31.9444 10.8619 31.7801C11.7655 31.6193 12.6835 31.3693 13.4335 30.7943L11.2655 27.9547ZM11.9512 26.2974C11.9932 26.6096 11.9519 26.9273 11.8315 27.2184C11.7111 27.5094 11.5158 27.7635 11.2655 27.9547L13.4335 30.7943C14.1845 30.2206 14.7703 29.4585 15.1316 28.5853C15.4929 27.7121 15.6169 26.7553 15.4909 25.8188L11.9512 26.2974ZM9.40457 22.7649C10.3582 23.9293 11.0047 24.7223 11.4405 25.3473C11.8834 25.9867 11.9405 26.2331 11.9512 26.2974L15.4909 25.8188C15.3659 24.883 14.8944 24.0615 14.3693 23.3078C13.8371 22.5399 13.0835 21.622 12.1691 20.504L9.40457 22.7649ZM7.40081 19.7218C7.5794 20.2933 7.87228 20.779 8.19731 21.2362C8.51163 21.6755 8.92596 22.1827 9.40457 22.7649L12.1691 20.504C11.8022 20.067 11.4484 19.6192 11.1083 19.161C10.9815 19.0015 10.878 18.8247 10.8011 18.636L7.40081 19.7218ZM7.58654 15.9643C7.07246 17.1531 7.00648 18.488 7.40081 19.7218L10.8011 18.636C10.671 18.2251 10.6939 17.7811 10.8654 17.3858L7.58654 15.9643ZM9.88676 13.1354C9.351 13.6676 8.88667 14.1284 8.52949 14.5391C8.14095 14.9607 7.82259 15.4418 7.58654 15.9643L10.8654 17.3858C10.9604 17.2054 11.0807 17.0358 11.2226 16.8894C11.6049 16.4664 12.0016 16.0566 12.412 15.6607L9.88676 13.1354ZM13.0764 9.94227L9.88676 13.1354L12.412 15.6607L15.6016 12.4675L13.0764 9.94227ZM15.9052 7.64562C15.3828 7.88167 14.9016 8.20003 14.4801 8.58857C14.0729 8.94575 13.6085 9.40651 13.0764 9.94227L15.6016 12.4675C16.1695 11.9032 16.5338 11.5389 16.8303 11.2781C17.116 11.0281 17.2517 10.9567 17.3268 10.9209L15.9052 7.64562ZM19.6663 7.45632C18.431 7.06222 17.0947 7.12948 15.9052 7.64562L17.3268 10.9209C17.7221 10.7494 18.1661 10.7301 18.5769 10.8602L19.6663 7.45632ZM22.7094 9.46365C22.1236 8.98504 21.62 8.57071 21.1771 8.2564C20.7196 7.91055 20.2095 7.64042 19.6663 7.45632L18.5769 10.8602C18.7666 10.9357 18.9447 11.0379 19.1055 11.1638C19.427 11.396 19.827 11.721 20.4485 12.2282L22.7094 9.46365ZM26.2383 12.0103C26.174 11.9996 25.9276 11.9389 25.2882 11.496C24.4049 10.848 23.5447 10.1725 22.7094 9.46365L20.4485 12.2282C21.5629 13.1426 22.4844 13.8962 23.2487 14.4284C23.9988 14.9499 24.8275 15.4214 25.7633 15.5499L26.2383 12.0103ZM27.8956 11.321C27.7048 11.5719 27.451 11.7679 27.1599 11.889C26.8688 12.0101 26.5508 12.0519 26.2383 12.0103L25.7633 15.5499C26.7004 15.6766 27.6543 15.5494 28.5282 15.1881C29.4021 14.8267 30.1648 14.2405 30.7387 13.489L27.8956 11.321ZM28.5921 7.02771C28.4421 8.52071 28.3421 9.53866 28.2064 10.2852C28.0671 11.0495 27.9385 11.2674 27.8956 11.321L30.7387 13.489C31.3102 12.739 31.5603 11.821 31.721 10.9174C31.8853 9.99942 32.0067 8.81716 32.1496 7.38131L28.5921 7.02771ZM29.3279 3.45594C29.0529 3.99171 28.9136 4.53819 28.8207 5.09181C28.7314 5.62757 28.6671 6.27407 28.5921 7.02771L32.146 7.38489C32.1956 6.8151 32.2623 6.24693 32.346 5.68115C32.3704 5.47943 32.4233 5.2822 32.5032 5.09538L29.3279 3.45594ZM32.121 0.930699C30.9145 1.40765 29.9221 2.30263 29.3279 3.45594L32.5032 5.09538C32.7007 4.71137 33.0306 4.41191 33.4319 4.25244L32.121 0.930699ZM35.7428 0.555664C34.9892 0.555664 34.3355 0.555664 33.7926 0.591382C33.2209 0.614498 32.6565 0.729055 32.121 0.930699L33.4319 4.25244C33.6263 4.19196 33.8283 4.15948 34.0319 4.15601C34.4248 4.12743 34.9427 4.12743 35.7464 4.12743L35.7428 0.555664ZM40.2575 0.555664H35.7428V4.12743H40.2575V0.555664ZM43.8829 0.930699C43.3451 0.728307 42.7783 0.613737 42.2041 0.591382C41.6648 0.555664 41.0112 0.555664 40.2575 0.555664V4.12743C41.0576 4.12743 41.5719 4.12743 41.9684 4.15601C42.172 4.15948 42.374 4.19196 42.5684 4.25244L43.8829 0.930699ZM46.6724 3.45594C46.0776 2.30397 45.0852 1.40677 43.8793 0.930699L42.5684 4.25244C42.9697 4.41191 43.2996 4.71137 43.4971 5.09538L46.6724 3.45594ZM50.5013 38.0557C50.5013 41.3712 49.1843 44.5509 46.8398 46.8953C44.4954 49.2398 41.3157 50.5569 38.0002 50.5569V54.1286C42.263 54.1286 46.3512 52.4352 49.3654 49.421C52.3797 46.4067 54.0731 42.3185 54.0731 38.0557H50.5013ZM38.0002 25.5545C41.3157 25.5545 44.4954 26.8716 46.8398 29.216C49.1843 31.5604 50.5013 34.7401 50.5013 38.0557H54.0731C54.0731 33.7928 52.3797 29.7046 49.3654 26.6904C46.3512 23.6761 42.263 21.9827 38.0002 21.9827V25.5545ZM25.499 38.0557C25.499 34.7401 26.816 31.5604 29.1605 29.216C31.5049 26.8716 34.6846 25.5545 38.0002 25.5545V21.9827C33.7373 21.9827 29.6491 23.6761 26.6349 26.6904C23.6206 29.7046 21.9272 33.7928 21.9272 38.0557H25.499ZM38.0002 50.5569C34.6846 50.5569 31.5049 49.2398 29.1605 46.8953C26.816 44.5509 25.499 41.3712 25.499 38.0557H21.9272C21.9272 42.3185 23.6206 46.4067 26.6349 49.421C29.6491 52.4352 33.7373 54.1286 38.0002 54.1286V50.5569Z" fill="black" fill-opacity="0.2"/>
</svg>
