<svg width="57" height="76" viewBox="0 0 57 76" fill="none" xmlns="http://www.w3.org/2000/svg">
<path d="M3.64062 75.5557H52.8594C54.7977 75.5557 56.375 73.9783 56.375 72.04V22.8213C56.375 22.7814 56.3562 22.7486 56.3539 22.7111C56.3477 22.6596 56.3375 22.6088 56.3234 22.5588C56.2858 22.3963 56.2139 22.2436 56.1125 22.1111C56.0961 22.09 56.0984 22.0643 56.082 22.0432L37.332 0.949414L37.3086 0.935352C37.1651 0.786379 36.9848 0.678023 36.7859 0.621289C36.7438 0.608789 36.7 0.600195 36.6547 0.595508C36.5867 0.583789 36.5234 0.555664 36.4531 0.555664H3.64062C1.70234 0.555664 0.125 2.13301 0.125 4.07129V72.04C0.125 73.9783 1.70234 75.5557 3.64062 75.5557ZM37.625 4.80957L52.5945 21.6494H38.7969C38.2812 21.6494 37.625 20.665 37.625 19.8916V4.80957ZM2.46875 4.07129C2.46875 3.76049 2.59222 3.46242 2.81198 3.24265C3.03175 3.02288 3.32982 2.89941 3.64062 2.89941H35.2812V19.8916C35.2812 21.7877 36.8164 23.9932 38.7969 23.9932H54.0312V72.04C54.0312 72.3508 53.9078 72.6489 53.688 72.8687C53.4682 73.0884 53.1702 73.2119 52.8594 73.2119H3.64062C2.98438 73.2119 2.46875 72.6963 2.46875 72.04V4.07129Z" fill="#2C3244"/>
<path d="M3.64062 75.5557H52.8594C54.7977 75.5557 56.375 73.9783 56.375 72.04V22.8213C56.375 22.7814 56.3562 22.7486 56.3539 22.7111C56.3477 22.6596 56.3375 22.6088 56.3234 22.5588C56.2858 22.3963 56.2139 22.2436 56.1125 22.1111C56.0961 22.09 56.0984 22.0643 56.082 22.0432L37.332 0.949414L37.3086 0.935352C37.1651 0.786379 36.9848 0.678023 36.7859 0.621289C36.7438 0.608789 36.7 0.600195 36.6547 0.595508C36.5867 0.583789 36.5234 0.555664 36.4531 0.555664H3.64062C1.70234 0.555664 0.125 2.13301 0.125 4.07129V72.04C0.125 73.9783 1.70234 75.5557 3.64062 75.5557ZM37.625 4.80957L52.5945 21.6494H38.7969C38.2812 21.6494 37.625 20.665 37.625 19.8916V4.80957ZM2.46875 4.07129C2.46875 3.76049 2.59222 3.46242 2.81198 3.24265C3.03175 3.02288 3.32982 2.89941 3.64062 2.89941H35.2812V19.8916C35.2812 21.7877 36.8164 23.9932 38.7969 23.9932H54.0312V72.04C54.0312 72.3508 53.9078 72.6489 53.688 72.8687C53.4682 73.0884 53.1702 73.2119 52.8594 73.2119H3.64062C2.98438 73.2119 2.46875 72.6963 2.46875 72.04V4.07129Z" fill="black" fill-opacity="0.2"/>
<path d="M3.64062 75.5557H52.8594C54.7977 75.5557 56.375 73.9783 56.375 72.04V22.8213C56.375 22.7814 56.3562 22.7486 56.3539 22.7111C56.3477 22.6596 56.3375 22.6088 56.3234 22.5588C56.2858 22.3963 56.2139 22.2436 56.1125 22.1111C56.0961 22.09 56.0984 22.0643 56.082 22.0432L37.332 0.949414L37.3086 0.935352C37.1651 0.786379 36.9848 0.678023 36.7859 0.621289C36.7438 0.608789 36.7 0.600195 36.6547 0.595508C36.5867 0.583789 36.5234 0.555664 36.4531 0.555664H3.64062C1.70234 0.555664 0.125 2.13301 0.125 4.07129V72.04C0.125 73.9783 1.70234 75.5557 3.64062 75.5557ZM37.625 4.80957L52.5945 21.6494H38.7969C38.2812 21.6494 37.625 20.665 37.625 19.8916V4.80957ZM2.46875 4.07129C2.46875 3.76049 2.59222 3.46242 2.81198 3.24265C3.03175 3.02288 3.32982 2.89941 3.64062 2.89941H35.2812V19.8916C35.2812 21.7877 36.8164 23.9932 38.7969 23.9932H54.0312V72.04C54.0312 72.3508 53.9078 72.6489 53.688 72.8687C53.4682 73.0884 53.1702 73.2119 52.8594 73.2119H3.64062C2.98438 73.2119 2.46875 72.6963 2.46875 72.04V4.07129Z" fill="black" fill-opacity="0.2"/>
<path d="M3.64062 75.5557H52.8594C54.7977 75.5557 56.375 73.9783 56.375 72.04V22.8213C56.375 22.7814 56.3562 22.7486 56.3539 22.7111C56.3477 22.6596 56.3375 22.6088 56.3234 22.5588C56.2858 22.3963 56.2139 22.2436 56.1125 22.1111C56.0961 22.09 56.0984 22.0643 56.082 22.0432L37.332 0.949414L37.3086 0.935352C37.1651 0.786379 36.9848 0.678023 36.7859 0.621289C36.7438 0.608789 36.7 0.600195 36.6547 0.595508C36.5867 0.583789 36.5234 0.555664 36.4531 0.555664H3.64062C1.70234 0.555664 0.125 2.13301 0.125 4.07129V72.04C0.125 73.9783 1.70234 75.5557 3.64062 75.5557ZM37.625 4.80957L52.5945 21.6494H38.7969C38.2812 21.6494 37.625 20.665 37.625 19.8916V4.80957ZM2.46875 4.07129C2.46875 3.76049 2.59222 3.46242 2.81198 3.24265C3.03175 3.02288 3.32982 2.89941 3.64062 2.89941H35.2812V19.8916C35.2812 21.7877 36.8164 23.9932 38.7969 23.9932H54.0312V72.04C54.0312 72.3508 53.9078 72.6489 53.688 72.8687C53.4682 73.0884 53.1702 73.2119 52.8594 73.2119H3.64062C2.98438 73.2119 2.46875 72.6963 2.46875 72.04V4.07129Z" fill="black" fill-opacity="0.2"/>
<path d="M13.0156 33.3682H43.4844C43.7952 33.3682 44.0932 33.2447 44.313 33.0249C44.5328 32.8052 44.6562 32.5071 44.6562 32.1963C44.6562 31.8855 44.5328 31.5874 44.313 31.3676C44.0932 31.1479 43.7952 31.0244 43.4844 31.0244H13.0156C12.7048 31.0244 12.4068 31.1479 12.187 31.3676C11.9672 31.5874 11.8438 31.8855 11.8438 32.1963C11.8438 32.5071 11.9672 32.8052 12.187 33.0249C12.4068 33.2447 12.7048 33.3682 13.0156 33.3682ZM13.0156 42.7432H43.4844C43.7952 42.7432 44.0932 42.6197 44.313 42.3999C44.5328 42.1802 44.6562 41.8821 44.6562 41.5713C44.6562 41.2605 44.5328 40.9624 44.313 40.7426C44.0932 40.5229 43.7952 40.3994 43.4844 40.3994H13.0156C12.7048 40.3994 12.4068 40.5229 12.187 40.7426C11.9672 40.9624 11.8438 41.2605 11.8438 41.5713C11.8438 41.8821 11.9672 42.1802 12.187 42.3999C12.4068 42.6197 12.7048 42.7432 13.0156 42.7432ZM13.0156 23.9932H27.0781C27.3889 23.9932 27.687 23.8697 27.9068 23.6499C28.1265 23.4302 28.25 23.1321 28.25 22.8213C28.25 22.5105 28.1265 22.2124 27.9068 21.9926C27.687 21.7729 27.3889 21.6494 27.0781 21.6494H13.0156C12.7048 21.6494 12.4068 21.7729 12.187 21.9926C11.9672 22.2124 11.8438 22.5105 11.8438 22.8213C11.8438 23.1321 11.9672 23.4302 12.187 23.6499C12.4068 23.8697 12.7048 23.9932 13.0156 23.9932ZM13.0156 52.1182H43.4844C43.7952 52.1182 44.0932 51.9947 44.313 51.7749C44.5328 51.5552 44.6562 51.2571 44.6562 50.9463C44.6562 50.6355 44.5328 50.3374 44.313 50.1176C44.0932 49.8979 43.7952 49.7744 43.4844 49.7744H13.0156C12.7048 49.7744 12.4068 49.8979 12.187 50.1176C11.9672 50.3374 11.8438 50.6355 11.8438 50.9463C11.8438 51.2571 11.9672 51.5552 12.187 51.7749C12.4068 51.9947 12.7048 52.1182 13.0156 52.1182ZM13.0156 61.4932H43.4844C43.7952 61.4932 44.0932 61.3697 44.313 61.1499C44.5328 60.9302 44.6562 60.6321 44.6562 60.3213C44.6562 60.0105 44.5328 59.7124 44.313 59.4926C44.0932 59.2729 43.7952 59.1494 43.4844 59.1494H13.0156C12.7048 59.1494 12.4068 59.2729 12.187 59.4926C11.9672 59.7124 11.8438 60.0105 11.8438 60.3213C11.8438 60.6321 11.9672 60.9302 12.187 61.1499C12.4068 61.3697 12.7048 61.4932 13.0156 61.4932Z" fill="#2C3244"/>
<path d="M13.0156 33.3682H43.4844C43.7952 33.3682 44.0932 33.2447 44.313 33.0249C44.5328 32.8052 44.6562 32.5071 44.6562 32.1963C44.6562 31.8855 44.5328 31.5874 44.313 31.3676C44.0932 31.1479 43.7952 31.0244 43.4844 31.0244H13.0156C12.7048 31.0244 12.4068 31.1479 12.187 31.3676C11.9672 31.5874 11.8438 31.8855 11.8438 32.1963C11.8438 32.5071 11.9672 32.8052 12.187 33.0249C12.4068 33.2447 12.7048 33.3682 13.0156 33.3682ZM13.0156 42.7432H43.4844C43.7952 42.7432 44.0932 42.6197 44.313 42.3999C44.5328 42.1802 44.6562 41.8821 44.6562 41.5713C44.6562 41.2605 44.5328 40.9624 44.313 40.7426C44.0932 40.5229 43.7952 40.3994 43.4844 40.3994H13.0156C12.7048 40.3994 12.4068 40.5229 12.187 40.7426C11.9672 40.9624 11.8438 41.2605 11.8438 41.5713C11.8438 41.8821 11.9672 42.1802 12.187 42.3999C12.4068 42.6197 12.7048 42.7432 13.0156 42.7432ZM13.0156 23.9932H27.0781C27.3889 23.9932 27.687 23.8697 27.9068 23.6499C28.1265 23.4302 28.25 23.1321 28.25 22.8213C28.25 22.5105 28.1265 22.2124 27.9068 21.9926C27.687 21.7729 27.3889 21.6494 27.0781 21.6494H13.0156C12.7048 21.6494 12.4068 21.7729 12.187 21.9926C11.9672 22.2124 11.8438 22.5105 11.8438 22.8213C11.8438 23.1321 11.9672 23.4302 12.187 23.6499C12.4068 23.8697 12.7048 23.9932 13.0156 23.9932ZM13.0156 52.1182H43.4844C43.7952 52.1182 44.0932 51.9947 44.313 51.7749C44.5328 51.5552 44.6562 51.2571 44.6562 50.9463C44.6562 50.6355 44.5328 50.3374 44.313 50.1176C44.0932 49.8979 43.7952 49.7744 43.4844 49.7744H13.0156C12.7048 49.7744 12.4068 49.8979 12.187 50.1176C11.9672 50.3374 11.8438 50.6355 11.8438 50.9463C11.8438 51.2571 11.9672 51.5552 12.187 51.7749C12.4068 51.9947 12.7048 52.1182 13.0156 52.1182ZM13.0156 61.4932H43.4844C43.7952 61.4932 44.0932 61.3697 44.313 61.1499C44.5328 60.9302 44.6562 60.6321 44.6562 60.3213C44.6562 60.0105 44.5328 59.7124 44.313 59.4926C44.0932 59.2729 43.7952 59.1494 43.4844 59.1494H13.0156C12.7048 59.1494 12.4068 59.2729 12.187 59.4926C11.9672 59.7124 11.8438 60.0105 11.8438 60.3213C11.8438 60.6321 11.9672 60.9302 12.187 61.1499C12.4068 61.3697 12.7048 61.4932 13.0156 61.4932Z" fill="black" fill-opacity="0.2"/>
<path d="M13.0156 33.3682H43.4844C43.7952 33.3682 44.0932 33.2447 44.313 33.0249C44.5328 32.8052 44.6562 32.5071 44.6562 32.1963C44.6562 31.8855 44.5328 31.5874 44.313 31.3676C44.0932 31.1479 43.7952 31.0244 43.4844 31.0244H13.0156C12.7048 31.0244 12.4068 31.1479 12.187 31.3676C11.9672 31.5874 11.8438 31.8855 11.8438 32.1963C11.8438 32.5071 11.9672 32.8052 12.187 33.0249C12.4068 33.2447 12.7048 33.3682 13.0156 33.3682ZM13.0156 42.7432H43.4844C43.7952 42.7432 44.0932 42.6197 44.313 42.3999C44.5328 42.1802 44.6562 41.8821 44.6562 41.5713C44.6562 41.2605 44.5328 40.9624 44.313 40.7426C44.0932 40.5229 43.7952 40.3994 43.4844 40.3994H13.0156C12.7048 40.3994 12.4068 40.5229 12.187 40.7426C11.9672 40.9624 11.8438 41.2605 11.8438 41.5713C11.8438 41.8821 11.9672 42.1802 12.187 42.3999C12.4068 42.6197 12.7048 42.7432 13.0156 42.7432ZM13.0156 23.9932H27.0781C27.3889 23.9932 27.687 23.8697 27.9068 23.6499C28.1265 23.4302 28.25 23.1321 28.25 22.8213C28.25 22.5105 28.1265 22.2124 27.9068 21.9926C27.687 21.7729 27.3889 21.6494 27.0781 21.6494H13.0156C12.7048 21.6494 12.4068 21.7729 12.187 21.9926C11.9672 22.2124 11.8438 22.5105 11.8438 22.8213C11.8438 23.1321 11.9672 23.4302 12.187 23.6499C12.4068 23.8697 12.7048 23.9932 13.0156 23.9932ZM13.0156 52.1182H43.4844C43.7952 52.1182 44.0932 51.9947 44.313 51.7749C44.5328 51.5552 44.6562 51.2571 44.6562 50.9463C44.6562 50.6355 44.5328 50.3374 44.313 50.1176C44.0932 49.8979 43.7952 49.7744 43.4844 49.7744H13.0156C12.7048 49.7744 12.4068 49.8979 12.187 50.1176C11.9672 50.3374 11.8438 50.6355 11.8438 50.9463C11.8438 51.2571 11.9672 51.5552 12.187 51.7749C12.4068 51.9947 12.7048 52.1182 13.0156 52.1182ZM13.0156 61.4932H43.4844C43.7952 61.4932 44.0932 61.3697 44.313 61.1499C44.5328 60.9302 44.6562 60.6321 44.6562 60.3213C44.6562 60.0105 44.5328 59.7124 44.313 59.4926C44.0932 59.2729 43.7952 59.1494 43.4844 59.1494H13.0156C12.7048 59.1494 12.4068 59.2729 12.187 59.4926C11.9672 59.7124 11.8438 60.0105 11.8438 60.3213C11.8438 60.6321 11.9672 60.9302 12.187 61.1499C12.4068 61.3697 12.7048 61.4932 13.0156 61.4932Z" fill="black" fill-opacity="0.2"/>
<path d="M13.0156 33.3682H43.4844C43.7952 33.3682 44.0932 33.2447 44.313 33.0249C44.5328 32.8052 44.6562 32.5071 44.6562 32.1963C44.6562 31.8855 44.5328 31.5874 44.313 31.3676C44.0932 31.1479 43.7952 31.0244 43.4844 31.0244H13.0156C12.7048 31.0244 12.4068 31.1479 12.187 31.3676C11.9672 31.5874 11.8438 31.8855 11.8438 32.1963C11.8438 32.5071 11.9672 32.8052 12.187 33.0249C12.4068 33.2447 12.7048 33.3682 13.0156 33.3682ZM13.0156 42.7432H43.4844C43.7952 42.7432 44.0932 42.6197 44.313 42.3999C44.5328 42.1802 44.6562 41.8821 44.6562 41.5713C44.6562 41.2605 44.5328 40.9624 44.313 40.7426C44.0932 40.5229 43.7952 40.3994 43.4844 40.3994H13.0156C12.7048 40.3994 12.4068 40.5229 12.187 40.7426C11.9672 40.9624 11.8438 41.2605 11.8438 41.5713C11.8438 41.8821 11.9672 42.1802 12.187 42.3999C12.4068 42.6197 12.7048 42.7432 13.0156 42.7432ZM13.0156 23.9932H27.0781C27.3889 23.9932 27.687 23.8697 27.9068 23.6499C28.1265 23.4302 28.25 23.1321 28.25 22.8213C28.25 22.5105 28.1265 22.2124 27.9068 21.9926C27.687 21.7729 27.3889 21.6494 27.0781 21.6494H13.0156C12.7048 21.6494 12.4068 21.7729 12.187 21.9926C11.9672 22.2124 11.8438 22.5105 11.8438 22.8213C11.8438 23.1321 11.9672 23.4302 12.187 23.6499C12.4068 23.8697 12.7048 23.9932 13.0156 23.9932ZM13.0156 52.1182H43.4844C43.7952 52.1182 44.0932 51.9947 44.313 51.7749C44.5328 51.5552 44.6562 51.2571 44.6562 50.9463C44.6562 50.6355 44.5328 50.3374 44.313 50.1176C44.0932 49.8979 43.7952 49.7744 43.4844 49.7744H13.0156C12.7048 49.7744 12.4068 49.8979 12.187 50.1176C11.9672 50.3374 11.8438 50.6355 11.8438 50.9463C11.8438 51.2571 11.9672 51.5552 12.187 51.7749C12.4068 51.9947 12.7048 52.1182 13.0156 52.1182ZM13.0156 61.4932H43.4844C43.7952 61.4932 44.0932 61.3697 44.313 61.1499C44.5328 60.9302 44.6562 60.6321 44.6562 60.3213C44.6562 60.0105 44.5328 59.7124 44.313 59.4926C44.0932 59.2729 43.7952 59.1494 43.4844 59.1494H13.0156C12.7048 59.1494 12.4068 59.2729 12.187 59.4926C11.9672 59.7124 11.8438 60.0105 11.8438 60.3213C11.8438 60.6321 11.9672 60.9302 12.187 61.1499C12.4068 61.3697 12.7048 61.4932 13.0156 61.4932Z" fill="black" fill-opacity="0.2"/>
</svg>
