<svg width="76" height="76" viewBox="0 0 76 76" fill="none" xmlns="http://www.w3.org/2000/svg">
<path d="M16.125 42.7432H59.875M38 42.7432V75.5557M20.8125 34.9307V20.8682H17.15C15.0689 20.8682 13.0469 21.5607 11.4027 22.8365C9.75849 24.1124 8.58557 25.8991 8.06875 27.915L2.0625 51.3369V52.1182H23.9375V56.8057C23.9375 61.4932 23.9375 64.6182 26.2813 69.3057C26.2813 69.3057 28.625 73.9932 31.75 73.9932M55.1875 34.9307V20.8682H58.85C60.9312 20.8682 62.9531 21.5607 64.5973 22.8365C66.2415 24.1124 67.4144 25.8991 67.9313 27.915L73.9375 51.3369V52.1182H52.0625V56.8057C52.0625 61.4932 52.0625 64.6182 49.7188 69.3057C49.7188 69.3057 47.375 73.9932 44.25 73.9932M20.3438 14.6182C20.3438 14.6182 15.3438 11.4932 15.3438 7.58691C15.3438 6.13817 15.9193 4.74876 16.9437 3.72434C17.9681 2.69993 19.3575 2.12441 20.8063 2.12441C22.255 2.12441 23.6444 2.69993 24.6688 3.72434C25.6932 4.74876 26.2688 6.13817 26.2688 7.58691C26.2688 11.4932 21.2813 14.6182 21.2813 14.6182H20.3438ZM55.6563 14.6182C55.6563 14.6182 60.6563 11.4932 60.6563 7.58691C60.6563 6.13651 60.0801 4.74551 59.0545 3.71992C58.0289 2.69433 56.6379 2.11816 55.1875 2.11816C52.1688 2.11816 49.7313 4.56816 49.7313 7.58691C49.7313 11.4932 54.7188 14.6182 54.7188 14.6182H55.6563Z" stroke="#2C3244" stroke-width="3"/>
<path d="M16.125 42.7432H59.875M38 42.7432V75.5557M20.8125 34.9307V20.8682H17.15C15.0689 20.8682 13.0469 21.5607 11.4027 22.8365C9.75849 24.1124 8.58557 25.8991 8.06875 27.915L2.0625 51.3369V52.1182H23.9375V56.8057C23.9375 61.4932 23.9375 64.6182 26.2813 69.3057C26.2813 69.3057 28.625 73.9932 31.75 73.9932M55.1875 34.9307V20.8682H58.85C60.9312 20.8682 62.9531 21.5607 64.5973 22.8365C66.2415 24.1124 67.4144 25.8991 67.9313 27.915L73.9375 51.3369V52.1182H52.0625V56.8057C52.0625 61.4932 52.0625 64.6182 49.7188 69.3057C49.7188 69.3057 47.375 73.9932 44.25 73.9932M20.3438 14.6182C20.3438 14.6182 15.3438 11.4932 15.3438 7.58691C15.3438 6.13817 15.9193 4.74876 16.9437 3.72434C17.9681 2.69993 19.3575 2.12441 20.8063 2.12441C22.255 2.12441 23.6444 2.69993 24.6688 3.72434C25.6932 4.74876 26.2688 6.13817 26.2688 7.58691C26.2688 11.4932 21.2813 14.6182 21.2813 14.6182H20.3438ZM55.6563 14.6182C55.6563 14.6182 60.6563 11.4932 60.6563 7.58691C60.6563 6.13651 60.0801 4.74551 59.0545 3.71992C58.0289 2.69433 56.6379 2.11816 55.1875 2.11816C52.1688 2.11816 49.7313 4.56816 49.7313 7.58691C49.7313 11.4932 54.7188 14.6182 54.7188 14.6182H55.6563Z" stroke="black" stroke-opacity="0.2" stroke-width="3"/>
<path d="M16.125 42.7432H59.875M38 42.7432V75.5557M20.8125 34.9307V20.8682H17.15C15.0689 20.8682 13.0469 21.5607 11.4027 22.8365C9.75849 24.1124 8.58557 25.8991 8.06875 27.915L2.0625 51.3369V52.1182H23.9375V56.8057C23.9375 61.4932 23.9375 64.6182 26.2813 69.3057C26.2813 69.3057 28.625 73.9932 31.75 73.9932M55.1875 34.9307V20.8682H58.85C60.9312 20.8682 62.9531 21.5607 64.5973 22.8365C66.2415 24.1124 67.4144 25.8991 67.9313 27.915L73.9375 51.3369V52.1182H52.0625V56.8057C52.0625 61.4932 52.0625 64.6182 49.7188 69.3057C49.7188 69.3057 47.375 73.9932 44.25 73.9932M20.3438 14.6182C20.3438 14.6182 15.3438 11.4932 15.3438 7.58691C15.3438 6.13817 15.9193 4.74876 16.9437 3.72434C17.9681 2.69993 19.3575 2.12441 20.8063 2.12441C22.255 2.12441 23.6444 2.69993 24.6688 3.72434C25.6932 4.74876 26.2688 6.13817 26.2688 7.58691C26.2688 11.4932 21.2813 14.6182 21.2813 14.6182H20.3438ZM55.6563 14.6182C55.6563 14.6182 60.6563 11.4932 60.6563 7.58691C60.6563 6.13651 60.0801 4.74551 59.0545 3.71992C58.0289 2.69433 56.6379 2.11816 55.1875 2.11816C52.1688 2.11816 49.7313 4.56816 49.7313 7.58691C49.7313 11.4932 54.7188 14.6182 54.7188 14.6182H55.6563Z" stroke="black" stroke-opacity="0.2" stroke-width="3"/>
<path d="M16.125 42.7432H59.875M38 42.7432V75.5557M20.8125 34.9307V20.8682H17.15C15.0689 20.8682 13.0469 21.5607 11.4027 22.8365C9.75849 24.1124 8.58557 25.8991 8.06875 27.915L2.0625 51.3369V52.1182H23.9375V56.8057C23.9375 61.4932 23.9375 64.6182 26.2813 69.3057C26.2813 69.3057 28.625 73.9932 31.75 73.9932M55.1875 34.9307V20.8682H58.85C60.9312 20.8682 62.9531 21.5607 64.5973 22.8365C66.2415 24.1124 67.4144 25.8991 67.9313 27.915L73.9375 51.3369V52.1182H52.0625V56.8057C52.0625 61.4932 52.0625 64.6182 49.7188 69.3057C49.7188 69.3057 47.375 73.9932 44.25 73.9932M20.3438 14.6182C20.3438 14.6182 15.3438 11.4932 15.3438 7.58691C15.3438 6.13817 15.9193 4.74876 16.9437 3.72434C17.9681 2.69993 19.3575 2.12441 20.8063 2.12441C22.255 2.12441 23.6444 2.69993 24.6688 3.72434C25.6932 4.74876 26.2688 6.13817 26.2688 7.58691C26.2688 11.4932 21.2813 14.6182 21.2813 14.6182H20.3438ZM55.6563 14.6182C55.6563 14.6182 60.6563 11.4932 60.6563 7.58691C60.6563 6.13651 60.0801 4.74551 59.0545 3.71992C58.0289 2.69433 56.6379 2.11816 55.1875 2.11816C52.1688 2.11816 49.7313 4.56816 49.7313 7.58691C49.7313 11.4932 54.7188 14.6182 54.7188 14.6182H55.6563Z" stroke="black" stroke-opacity="0.2" stroke-width="3"/>
</svg>
