<svg width="80" height="67" viewBox="0 0 80 67" fill="none" xmlns="http://www.w3.org/2000/svg">
<path d="M2.37891 2.38965V64.8896H77.6216" stroke="#2C3244" stroke-width="3" stroke-linecap="round"/>
<path d="M2.37891 2.38965V64.8896H77.6216" stroke="black" stroke-opacity="0.2" stroke-width="3" stroke-linecap="round"/>
<path d="M2.37891 2.38965V64.8896H77.6216" stroke="black" stroke-opacity="0.2" stroke-width="3" stroke-linecap="round"/>
<path d="M2.37891 2.38965V64.8896H77.6216" stroke="black" stroke-opacity="0.2" stroke-width="3" stroke-linecap="round"/>
<path d="M15.2231 43.6513H25.1341V64.8892H15.2231V43.6513ZM35.0451 28.4814H44.9561V64.8892H35.0451V28.4814ZM54.8671 36.6732H64.7781V64.8892H54.8671V36.6732Z" stroke="#2C3244" stroke-width="3" stroke-linejoin="round"/>
<path d="M15.2231 43.6513H25.1341V64.8892H15.2231V43.6513ZM35.0451 28.4814H44.9561V64.8892H35.0451V28.4814ZM54.8671 36.6732H64.7781V64.8892H54.8671V36.6732Z" stroke="black" stroke-opacity="0.2" stroke-width="3" stroke-linejoin="round"/>
<path d="M15.2231 43.6513H25.1341V64.8892H15.2231V43.6513ZM35.0451 28.4814H44.9561V64.8892H35.0451V28.4814ZM54.8671 36.6732H64.7781V64.8892H54.8671V36.6732Z" stroke="black" stroke-opacity="0.2" stroke-width="3" stroke-linejoin="round"/>
<path d="M15.2231 43.6513H25.1341V64.8892H15.2231V43.6513ZM35.0451 28.4814H44.9561V64.8892H35.0451V28.4814ZM54.8671 36.6732H64.7781V64.8892H54.8671V36.6732Z" stroke="black" stroke-opacity="0.2" stroke-width="3" stroke-linejoin="round"/>
<circle cx="27.2578" cy="10.2769" r="2.74757" stroke="#2C3244" stroke-width="3"/>
<circle cx="27.2578" cy="10.2769" r="2.74757" stroke="black" stroke-opacity="0.2" stroke-width="3"/>
<circle cx="27.2578" cy="10.2769" r="2.74757" stroke="black" stroke-opacity="0.2" stroke-width="3"/>
<circle cx="27.2578" cy="10.2769" r="2.74757" stroke="black" stroke-opacity="0.2" stroke-width="3"/>
<circle cx="11.481" cy="26.0542" r="2.74757" stroke="#2C3244" stroke-width="3"/>
<circle cx="11.481" cy="26.0542" r="2.74757" stroke="black" stroke-opacity="0.2" stroke-width="3"/>
<circle cx="11.481" cy="26.0542" r="2.74757" stroke="black" stroke-opacity="0.2" stroke-width="3"/>
<circle cx="11.481" cy="26.0542" r="2.74757" stroke="black" stroke-opacity="0.2" stroke-width="3"/>
<circle cx="47.8882" cy="19.9868" r="2.74757" stroke="#2C3244" stroke-width="3"/>
<circle cx="47.8882" cy="19.9868" r="2.74757" stroke="black" stroke-opacity="0.2" stroke-width="3"/>
<circle cx="47.8882" cy="19.9868" r="2.74757" stroke="black" stroke-opacity="0.2" stroke-width="3"/>
<circle cx="47.8882" cy="19.9868" r="2.74757" stroke="black" stroke-opacity="0.2" stroke-width="3"/>
<circle cx="66.6987" cy="7.24366" r="2.74757" stroke="#2C3244" stroke-width="3"/>
<circle cx="66.6987" cy="7.24366" r="2.74757" stroke="black" stroke-opacity="0.2" stroke-width="3"/>
<circle cx="66.6987" cy="7.24366" r="2.74757" stroke="black" stroke-opacity="0.2" stroke-width="3"/>
<circle cx="66.6987" cy="7.24366" r="2.74757" stroke="black" stroke-opacity="0.2" stroke-width="3"/>
<path d="M14.2114 23.3233L25.1337 13.0078" stroke="#2C3244" stroke-width="3" stroke-linecap="round" stroke-linejoin="round"/>
<path d="M14.2114 23.3233L25.1337 13.0078" stroke="black" stroke-opacity="0.2" stroke-width="3" stroke-linecap="round" stroke-linejoin="round"/>
<path d="M14.2114 23.3233L25.1337 13.0078" stroke="black" stroke-opacity="0.2" stroke-width="3" stroke-linecap="round" stroke-linejoin="round"/>
<path d="M14.2114 23.3233L25.1337 13.0078" stroke="black" stroke-opacity="0.2" stroke-width="3" stroke-linecap="round" stroke-linejoin="round"/>
<path d="M51.2261 17.2559L63.362 8.76074" stroke="#2C3244" stroke-width="3" stroke-linecap="round" stroke-linejoin="round"/>
<path d="M51.2261 17.2559L63.362 8.76074" stroke="black" stroke-opacity="0.2" stroke-width="3" stroke-linecap="round" stroke-linejoin="round"/>
<path d="M51.2261 17.2559L63.362 8.76074" stroke="black" stroke-opacity="0.2" stroke-width="3" stroke-linecap="round" stroke-linejoin="round"/>
<path d="M51.2261 17.2559L63.362 8.76074" stroke="black" stroke-opacity="0.2" stroke-width="3" stroke-linecap="round" stroke-linejoin="round"/>
<path d="M29.9883 12.7051L44.8548 19.0764" stroke="#2C3244" stroke-width="3" stroke-linecap="round" stroke-linejoin="round"/>
<path d="M29.9883 12.7051L44.8548 19.0764" stroke="black" stroke-opacity="0.2" stroke-width="3" stroke-linecap="round" stroke-linejoin="round"/>
<path d="M29.9883 12.7051L44.8548 19.0764" stroke="black" stroke-opacity="0.2" stroke-width="3" stroke-linecap="round" stroke-linejoin="round"/>
<path d="M29.9883 12.7051L44.8548 19.0764" stroke="black" stroke-opacity="0.2" stroke-width="3" stroke-linecap="round" stroke-linejoin="round"/>
</svg>
