<svg width="38" height="38" viewBox="0 0 38 38" fill="none" xmlns="http://www.w3.org/2000/svg">
<g clip-path="url(#clip0_375_1372)">
<path d="M4.54688 4.78149H33.4531C35.687 4.78149 37.5 6.59449 37.5 8.82837V28.4846C37.5 29.5579 37.0736 30.5873 36.3147 31.3462C35.5558 32.1051 34.5264 32.5315 33.4531 32.5315H4.54688C3.47358 32.5315 2.44424 32.1051 1.6853 31.3462C0.926366 30.5873 0.5 29.5579 0.5 28.4846L0.5 8.82837C0.5 6.59449 2.313 4.78149 4.54688 4.78149ZM3.96875 28.4869C3.96875 28.8061 4.22775 29.0651 4.54688 29.0651H33.4531C33.6065 29.0651 33.7535 29.0041 33.8619 28.8957C33.9703 28.7873 34.0312 28.6403 34.0312 28.4869V13.5898L19.8787 21.8871C19.6124 22.0436 19.309 22.1262 19 22.1262C18.691 22.1262 18.3876 22.0436 18.1213 21.8871L3.96875 13.5898V28.4869ZM34.0312 9.56837V8.82837C34.0312 8.67504 33.9703 8.52799 33.8619 8.41957C33.7535 8.31115 33.6065 8.25024 33.4531 8.25024H4.54688C4.39355 8.25024 4.2465 8.31115 4.13808 8.41957C4.02966 8.52799 3.96875 8.67504 3.96875 8.82837V9.56837L19 18.379L34.0312 9.56837Z" fill="white"/>
</g>
<defs>
<clipPath id="clip0_375_1372">
<rect width="37" height="37" fill="white" transform="translate(0.5 0.156494)"/>
</clipPath>
</defs>
</svg>
