<svg width="25" height="25" viewBox="0 0 25 25" fill="none" xmlns="http://www.w3.org/2000/svg">
<path d="M5.67969 6.73379C7.325 4.79785 9.75781 3.55566 12.5 3.55566C17.4734 3.55566 21.5 7.58223 21.5 12.5557H24.5C24.5 5.92754 19.1281 0.555664 12.5 0.555664C8.92813 0.555664 5.73594 2.12129 3.54219 4.59629L0.5 1.5541V9.55566H8.50156L5.67969 6.73379ZM19.3203 18.3775C17.6703 20.3135 15.2422 21.5557 12.5 21.5557C7.52656 21.5557 3.5 17.5291 3.5 12.5557H0.5C0.5 19.1838 5.87188 24.5557 12.5 24.5557C16.0719 24.5557 19.2641 22.99 21.4578 20.515L24.5 23.5572V15.5557H16.4984L19.3203 18.3775Z" fill="white"/>
</svg>
