<svg width="38" height="38" viewBox="0 0 38 38" fill="none" xmlns="http://www.w3.org/2000/svg">
<g clip-path="url(#clip0_375_1376)">
<path d="M18.1034 25.0535C18.3399 25.3655 18.6583 25.5371 19.0001 25.5371C19.342 25.5371 19.6604 25.3654 19.8969 25.0537L26.3715 16.5196C26.6134 16.2006 26.6803 15.8915 26.5601 15.6494C26.4397 15.4073 26.1532 15.2737 25.7531 15.2737H23.2739C22.6027 15.2737 22.0567 14.7278 22.0567 14.0568V7.01709C22.0567 6.21928 21.4075 5.56982 20.6096 5.56982H17.3905C16.5927 5.56982 15.9436 6.21928 15.9436 7.01709V14.0568C15.9436 14.7279 15.3976 15.2738 14.7264 15.2738H12.2473C11.8471 15.2738 11.5605 15.4073 11.4402 15.6494C11.3199 15.8915 11.3869 16.2007 11.6288 16.5199L18.1034 25.0535Z" fill="white"/>
<path d="M32.674 21.4141V29.4575H5.32604V21.4141H0.5V32.4453C0.5 33.4592 1.32477 34.2839 2.33851 34.2839H35.6615C36.6752 34.2839 37.5 33.4592 37.5 32.4453V21.4141H32.674Z" fill="white"/>
</g>
<defs>
<clipPath id="clip0_375_1376">
<rect width="37" height="37" fill="white" transform="translate(0.5 0.156494)"/>
</clipPath>
</defs>
</svg>
